<svg width="172" height="46" viewBox="0 0 172 46" fill="none" xmlns="http://www.w3.org/2000/svg">
<path fill-rule="evenodd" clip-rule="evenodd" d="M69.0479 36.7175V26.711H76.942V38.5832C76.942 39.4559 76.7759 40.3201 76.4532 41.1265C76.1305 41.9328 75.6575 42.6654 75.0612 43.2825C74.4649 43.8997 73.7569 44.3892 72.9778 44.7232C72.1987 45.0572 71.3637 45.2291 70.5204 45.2291H61.8481C61.0046 45.2298 60.1692 45.0584 59.3898 44.7247C58.6103 44.391 57.9021 43.9015 57.3057 43.2842C56.7092 42.667 56.2362 41.934 55.9138 41.1274C55.5913 40.3207 55.4257 39.4561 55.4265 38.5832V6.61112C55.425 4.86328 56.0929 3.18608 57.284 1.94692C58.475 0.707759 60.0921 0.00766563 61.7809 0H70.4868C72.1841 0.00918865 73.8088 0.713432 75.0059 1.95878C76.2029 3.20413 76.8749 4.88929 76.8748 6.64588V18.5818H69.0367V8.58112H63.2646V36.7175H69.0479ZM106.469 44.8351L96.4701 22.6377L106.469 0.446149H97.9985L88.1673 22.265V0.44614H80.2564V44.8351H88.1673V23.0105L97.9985 44.8351H106.469ZM126.77 0.446149V8.56374H116.995V18.5818H126.77V26.6936H116.995V36.7175H126.77V44.8351H109.089H109.084L109.089 0.446149H126.77ZM167.799 41.338C167.56 41.7077 167.433 42.1423 167.433 42.5869C167.423 42.885 167.472 43.182 167.577 43.4596C167.683 43.7371 167.843 43.9891 168.046 44.2C168.25 44.4109 168.494 44.5761 168.762 44.6854C169.03 44.7946 169.317 44.8456 169.605 44.8351C170.035 44.8351 170.455 44.7032 170.812 44.4562C171.169 44.2092 171.448 43.8581 171.612 43.4473C171.776 43.0365 171.819 42.5844 171.736 42.1484C171.652 41.7123 171.445 41.3117 171.141 40.9973C170.837 40.6829 170.45 40.4688 170.029 40.382C169.607 40.2953 169.171 40.3398 168.774 40.5099C168.377 40.6801 168.038 40.9682 167.799 41.338ZM171.024 41.6212C171.209 41.9071 171.307 42.2431 171.307 42.5869H171.318C171.318 42.8162 171.274 43.0432 171.189 43.2548C171.104 43.4665 170.979 43.6586 170.822 43.8202C170.665 43.9817 170.479 44.1095 170.274 44.1962C170.069 44.2829 169.849 44.3267 169.627 44.3252C169.295 44.3252 168.971 44.2232 168.694 44.0322C168.418 43.8412 168.203 43.5698 168.076 43.2521C167.949 42.9345 167.915 42.585 167.98 42.2478C168.045 41.9106 168.205 41.6009 168.44 41.3578C168.675 41.1147 168.974 40.9492 169.3 40.8821C169.626 40.815 169.963 40.8494 170.27 40.981C170.577 41.1126 170.839 41.3354 171.024 41.6212ZM168.676 41.4687V43.6762H169.129V42.9578H170.165V43.6762H170.618V43.0215C170.622 42.9902 170.619 42.9584 170.609 42.9286C170.599 42.8988 170.582 42.8717 170.561 42.8494C170.539 42.8271 170.513 42.8101 170.484 42.7998C170.455 42.7894 170.425 42.786 170.394 42.7897H170.014V42.6043C170.389 42.5696 170.618 42.4769 170.618 42.106C170.618 41.5903 170.07 41.4687 169.56 41.4687H168.676ZM169.56 42.5174H169.129V41.9728H169.56L169.604 41.9727C169.953 41.9723 170.165 41.972 170.165 42.2393C170.165 42.5174 169.935 42.5174 169.56 42.5174ZM150.777 0.446149H130.056V8.56374H135.409V44.8351H143.319V8.56374H147.798L150.777 0.446149ZM154.086 0.446149H171.772V8.56954H165.63V44.8351H157.719V8.56954H151.107L154.086 0.446149ZM52.0505 0.446149V8.56374H42.2753V18.5818H52.0505V26.711H42.2753V36.7175H52.0505V44.8351H34.3756H34.37L34.3756 0.446149H52.0505ZM6.1249 22.3364H0L4.72525 26.1605L2.25625 32.8991L8.45953 28.7331V44.8467H24.7628C26.4224 44.8421 28.0128 44.1573 29.1858 42.9422C30.3588 41.7271 31.0191 40.0806 31.022 38.363V28.2233C31.0225 26.9719 30.635 25.7533 29.9164 24.7468C29.1978 23.7403 28.1862 22.999 27.0302 22.6319C28.1862 22.2648 29.1978 21.5235 29.9164 20.517C30.635 19.5105 31.0225 18.292 31.022 17.0406V6.76756C31.0103 5.09124 30.3608 3.4872 29.2144 2.30291C28.068 1.11862 26.5169 0.449454 24.8971 0.440354L8.45953 0.422973V15.9744L6.1249 22.3364ZM8.45953 15.9744V28.7331L14.6572 32.9107L12.1882 26.1721L16.9135 22.348H10.7886L8.45953 15.9744ZM23.7328 35.2568C23.8805 34.8878 23.9566 34.4922 23.9566 34.0927V29.3299C23.9566 28.9305 23.8805 28.5349 23.7328 28.1659C23.5851 27.7968 23.3686 27.4614 23.0957 27.179C22.8227 26.8965 22.4987 26.6724 22.1421 26.5196C21.7855 26.3667 21.4033 26.288 21.0173 26.288H16.348V37.1347H21.0173C21.4033 37.1347 21.7855 37.056 22.1421 36.9031C22.4987 36.7502 22.8227 36.5262 23.0957 36.2437C23.3686 35.9612 23.5851 35.6259 23.7328 35.2568ZM23.7328 16.7156C23.8805 16.3465 23.9566 15.9509 23.9566 15.5515V11.2059C23.9566 10.8064 23.8805 10.4108 23.7328 10.0418C23.5851 9.67271 23.3686 9.33737 23.0957 9.0549C22.8227 8.77244 22.4987 8.54837 22.1421 8.3955C21.7855 8.24263 21.4033 8.16395 21.0173 8.16395H16.348V18.5934H21.0173C21.4033 18.5934 21.7855 18.5147 22.1421 18.3618C22.4987 18.209 22.8227 17.9849 23.0957 17.7024C23.3686 17.42 23.5851 17.0846 23.7328 16.7156Z" fill="white"/>
</svg>
