<svg width="142" height="54" viewBox="0 0 142 54" fill="none" xmlns="http://www.w3.org/2000/svg">
<path d="M5.92313 46.1521C5.92313 47.7107 6.32645 48.9115 7.13309 49.7546C7.93973 50.5977 8.98335 51.0193 10.2639 51.0193C11.4944 51.0193 12.4492 50.6912 13.1282 50.0349C13.8118 49.3787 14.1832 48.5606 14.2425 47.5808L14.2493 47.4441H12.4036L12.3968 47.5808C12.3557 48.1687 12.1621 48.6472 11.8157 49.0164C11.4694 49.3855 10.9521 49.5701 10.2639 49.5701C9.51655 49.5701 8.91955 49.2898 8.47293 48.7292C8.02632 48.1687 7.80301 47.3598 7.80301 46.3025V45.3728C7.80301 44.2289 8.02859 43.3995 8.47977 42.8845C8.9355 42.365 9.52567 42.1052 10.2503 42.1052C10.9749 42.1052 11.5149 42.283 11.8704 42.6384C12.2259 42.9939 12.4036 43.477 12.4036 44.0876V44.238H14.2493V44.1013C14.2493 43.1124 13.8916 42.2921 13.1761 41.6404C12.4651 40.9841 11.4944 40.656 10.2639 40.656C8.9879 40.656 7.94429 41.0753 7.13309 41.9138C6.32645 42.7524 5.92313 43.9555 5.92313 45.5232V46.1521ZM17.7914 46.1521C17.7914 47.7198 18.1993 48.9229 19.015 49.7615C19.8308 50.6 20.879 51.0193 22.1596 51.0193C23.4447 51.0193 24.4975 50.6 25.3178 49.7615C26.1381 48.9229 26.5482 47.7198 26.5482 46.1521V45.5232C26.5482 43.9555 26.1381 42.7524 25.3178 41.9138C24.4975 41.0753 23.4447 40.656 22.1596 40.656C20.879 40.656 19.8308 41.0753 19.015 41.9138C18.1993 42.7524 17.7914 43.9555 17.7914 45.5232V46.1521ZM19.6645 46.2751V45.4001C19.6645 44.3201 19.89 43.502 20.3412 42.946C20.7969 42.3855 21.4031 42.1052 22.1596 42.1052C22.9206 42.1052 23.529 42.3855 23.9848 42.946C24.4451 43.502 24.6752 44.3201 24.6752 45.4001V46.2751C24.6752 47.3552 24.4451 48.1755 23.9848 48.7361C23.529 49.2921 22.9206 49.5701 22.1596 49.5701C21.4031 49.5701 20.7969 49.2921 20.3412 48.7361C19.89 48.1755 19.6645 47.3552 19.6645 46.2751ZM30.7466 50.8142H32.3052V44.1833C32.3052 44.0375 32.3029 43.8757 32.2984 43.698C32.2938 43.5157 32.2824 43.3516 32.2642 43.2058H32.3189C32.3462 43.3516 32.3827 43.5157 32.4282 43.698C32.4784 43.8757 32.5308 44.0375 32.5855 44.1833L35.0806 50.8142H36.605L39.107 44.1833C39.1616 44.0375 39.2118 43.8757 39.2573 43.698C39.3075 43.5157 39.3462 43.3516 39.3736 43.2058H39.4282C39.41 43.3516 39.3963 43.5157 39.3872 43.698C39.3827 43.8757 39.3804 44.0375 39.3804 44.1833V50.8142H41.1919V40.8611H38.813L36.2359 47.656C36.1812 47.8018 36.131 47.9454 36.0855 48.0867C36.0445 48.2279 36.008 48.3761 35.9761 48.531H35.9282C35.8963 48.3761 35.8576 48.2279 35.812 48.0867C35.771 47.9454 35.7232 47.8018 35.6685 47.656L33.0982 40.8611H30.7466V50.8142ZM45.7526 50.8142H47.5914V40.8611H45.7526V50.8142ZM51.783 46.1521C51.783 47.7107 52.1863 48.9115 52.9929 49.7546C53.7996 50.5977 54.8432 51.0193 56.1238 51.0193C57.3543 51.0193 58.309 50.6912 58.988 50.0349C59.6716 49.3787 60.0431 48.5606 60.1023 47.5808L60.1091 47.4441H58.2634L58.2566 47.5808C58.2156 48.1687 58.0219 48.6472 57.6755 49.0164C57.3292 49.3855 56.8119 49.5701 56.1238 49.5701C55.3764 49.5701 54.7794 49.2898 54.3328 48.7292C53.8862 48.1687 53.6629 47.3598 53.6629 46.3025V45.3728C53.6629 44.2289 53.8884 43.3995 54.3396 42.8845C54.7953 42.365 55.3855 42.1052 56.1101 42.1052C56.8347 42.1052 57.3748 42.283 57.7302 42.6384C58.0857 42.9939 58.2634 43.477 58.2634 44.0876V44.238H60.1091V44.1013C60.1091 43.1124 59.7514 42.2921 59.0359 41.6404C58.325 40.9841 57.3543 40.656 56.1238 40.656C54.8477 40.656 53.8041 41.0753 52.9929 41.9138C52.1863 42.7524 51.783 43.9555 51.783 45.5232V46.1521ZM69.8252 50.8142H71.6572V47.1843H73.4482C74.5876 47.1843 75.4626 46.9041 76.0732 46.3435C76.6839 45.7784 76.9893 45.0014 76.9893 44.0125C76.9893 43.019 76.6839 42.2465 76.0732 41.6951C75.4626 41.1391 74.5898 40.8611 73.4551 40.8611H69.8252V50.8142ZM71.6572 45.783V42.2693H73.3252C74.0133 42.2693 74.4896 42.4288 74.7539 42.7478C75.0228 43.0623 75.1572 43.4838 75.1572 44.0125C75.1572 44.5457 75.0228 44.974 74.7539 45.2976C74.4896 45.6212 74.0133 45.783 73.3252 45.783H71.6572ZM80.8048 50.8142H82.6368V47.0544H84.298C85.4282 47.0544 86.3055 46.7742 86.9298 46.2136C87.5587 45.6531 87.8732 44.892 87.8732 43.9304C87.8732 42.9734 87.561 42.2237 86.9366 41.6814C86.3123 41.1345 85.435 40.8611 84.3048 40.8611H80.8048V50.8142ZM82.6368 45.6667V42.2556H84.257C84.9132 42.2556 85.3735 42.4106 85.6378 42.7205C85.9067 43.0258 86.0411 43.4337 86.0411 43.9441C86.0411 44.4545 85.9067 44.8692 85.6378 45.1882C85.3735 45.5072 84.9132 45.6667 84.257 45.6667H82.6368ZM86.3214 50.8142H88.3722L85.8497 46.0906L83.9425 46.2205L86.3214 50.8142ZM91.9963 50.8142H93.8352V40.8611H91.9963V50.8142ZM98.0267 46.1521C98.0267 47.7107 98.43 48.9115 99.2367 49.7546C100.043 50.5977 101.087 51.0193 102.368 51.0193C103.598 51.0193 104.553 50.6912 105.232 50.0349C105.915 49.3787 106.287 48.5606 106.346 47.5808L106.353 47.4441H104.507L104.5 47.5808C104.459 48.1687 104.266 48.6472 103.919 49.0164C103.573 49.3855 103.056 49.5701 102.368 49.5701C101.62 49.5701 101.023 49.2898 100.577 48.7292C100.13 48.1687 99.9066 47.3598 99.9066 46.3025V45.3728C99.9066 44.2289 100.132 43.3995 100.583 42.8845C101.039 42.365 101.629 42.1052 102.354 42.1052C103.078 42.1052 103.619 42.283 103.974 42.6384C104.329 42.9939 104.507 43.477 104.507 44.0876V44.238H106.353V44.1013C106.353 43.1124 105.995 42.2921 105.28 41.6404C104.569 40.9841 103.598 40.656 102.368 40.656C101.091 40.656 100.048 41.0753 99.2367 41.9138C98.43 42.7524 98.0267 43.9555 98.0267 45.5232V46.1521ZM110.264 50.8142H112.103V40.8611H110.264V50.8142ZM116.671 50.8142H118.311V44.532C118.311 44.3861 118.309 44.2335 118.304 44.074C118.3 43.9099 118.295 43.755 118.291 43.6091H118.338C118.393 43.7413 118.452 43.8735 118.516 44.0056C118.58 44.1378 118.653 44.2722 118.735 44.4089L122.597 50.8142H124.573V40.8611H122.939V47.198C122.939 47.3484 122.939 47.4988 122.939 47.6492C122.944 47.795 122.948 47.9408 122.953 48.0867H122.898C122.848 47.9545 122.789 47.8269 122.72 47.7039C122.657 47.5763 122.584 47.4418 122.502 47.3005L118.612 40.8611H116.671V50.8142ZM128.764 46.1521C128.764 47.7198 129.17 48.9229 129.981 49.7615C130.792 50.6 131.898 51.0193 133.297 51.0193C134.208 51.0193 134.981 50.8757 135.614 50.5886C136.247 50.297 136.733 49.9825 137.07 49.6453V45.6599H133.16V47.0544H135.272V49.0164C134.99 49.2123 134.696 49.3559 134.39 49.447C134.085 49.5336 133.72 49.5769 133.297 49.5769C132.467 49.5769 131.815 49.3012 131.342 48.7498C130.872 48.1938 130.637 47.3757 130.637 46.2957V45.3796C130.637 44.3132 130.863 43.502 131.314 42.946C131.765 42.3855 132.362 42.1052 133.105 42.1052C133.798 42.1052 134.324 42.2784 134.684 42.6248C135.044 42.9711 135.224 43.363 135.224 43.8005V43.8689H137.063V43.78C137.036 42.905 136.678 42.1667 135.99 41.5652C135.302 40.9591 134.361 40.656 133.167 40.656C131.85 40.656 130.786 41.0753 129.974 41.9138C129.168 42.7524 128.764 43.9555 128.764 45.5232V46.1521Z" fill="white"/>
<path fill-rule="evenodd" clip-rule="evenodd" d="M56.8778 30.3082V22.0484H63.3805V31.8482C63.3805 32.5686 63.2436 33.282 62.9778 33.9475C62.712 34.6131 62.3223 35.2178 61.8311 35.7272C61.3399 36.2366 60.7568 36.6407 60.115 36.9164C59.4732 37.1921 58.7854 37.334 58.0907 37.334H50.947C50.2521 37.3346 49.564 37.1932 48.9219 36.9177C48.2799 36.6422 47.6965 36.2382 47.2052 35.7286C46.7138 35.2191 46.3242 34.6141 46.0586 33.9483C45.793 33.2824 45.6566 32.5688 45.6572 31.8482V5.45709C45.6559 4.01436 46.2062 2.62993 47.1873 1.60707C48.1684 0.584214 49.5004 0.00632721 50.8916 0H58.063C59.4612 0.00758481 60.7995 0.588897 61.7856 1.61686C62.7716 2.64483 63.3251 4.03583 63.3251 5.48579V15.3382H56.8686V7.08322H52.1138V30.3082H56.8778ZM87.7033 37.0088L79.4666 18.6861L87.7033 0.36827H80.7256L72.6272 18.3785V0.368267H66.1107V37.0088H72.6272V18.9939L80.7256 37.0088H87.7033ZM104.426 0.36827V7.06888H96.3736V15.3382H104.426V22.034H96.3736V30.3082H104.426V37.0088H89.8616H89.857L89.8616 0.36827H104.426ZM138.223 34.1221C138.027 34.4273 137.922 34.786 137.922 35.1531C137.913 35.3991 137.954 35.6443 138.041 35.8734C138.128 36.1024 138.259 36.3105 138.427 36.4846C138.595 36.6587 138.796 36.795 139.016 36.8852C139.237 36.9754 139.474 37.0174 139.711 37.0088C140.065 37.0088 140.411 36.8999 140.705 36.696C140.999 36.4921 141.229 36.2023 141.364 35.8632C141.5 35.5241 141.535 35.151 141.466 34.791C141.397 34.4311 141.227 34.1004 140.976 33.8409C140.726 33.5814 140.407 33.4046 140.06 33.333C139.713 33.2614 139.353 33.2982 139.026 33.4386C138.699 33.5791 138.42 33.8169 138.223 34.1221ZM140.88 34.3559C141.032 34.5919 141.113 34.8693 141.113 35.1531H141.122C141.122 35.3423 141.086 35.5297 141.016 35.7044C140.946 35.8791 140.843 36.0377 140.714 36.171C140.584 36.3044 140.431 36.4099 140.262 36.4814C140.093 36.553 139.912 36.5891 139.729 36.5879C139.456 36.5879 139.188 36.5037 138.961 36.3461C138.733 36.1884 138.556 35.9643 138.451 35.7021C138.347 35.44 138.319 35.1515 138.372 34.8731C138.426 34.5948 138.558 34.3392 138.751 34.1385C138.945 33.9378 139.191 33.8012 139.46 33.7458C139.728 33.6905 140.006 33.7189 140.259 33.8275C140.512 33.9361 140.728 34.12 140.88 34.3559ZM138.945 34.23V36.0522H139.319V35.4592H140.172V36.0522H140.546V35.5118C140.549 35.4859 140.546 35.4597 140.538 35.4351C140.53 35.4105 140.516 35.3881 140.498 35.3697C140.481 35.3513 140.459 35.3373 140.435 35.3287C140.412 35.3202 140.386 35.3174 140.361 35.3205H140.048V35.1674C140.357 35.1387 140.546 35.0622 140.546 34.7561C140.546 34.3304 140.094 34.23 139.674 34.23H138.945ZM139.674 35.0957H139.319V34.6461H139.674L139.71 34.6461C139.998 34.6457 140.172 34.6455 140.172 34.8661C140.172 35.0957 139.983 35.0957 139.674 35.0957ZM124.201 0.36827H107.133V7.06888H111.542V37.0088H118.058V7.06888H121.748L124.201 0.36827ZM126.927 0.36827H141.496V7.07366H136.437V37.0088H129.92V7.07366H124.473L126.927 0.36827ZM42.8762 0.36827V7.06888H34.824V15.3382H42.8762V22.0484H34.824V30.3082H42.8762V37.0088H28.3167H28.3121L28.3167 0.36827H42.8762ZM5.04535 18.4374H0L3.89239 21.594L1.85857 27.1563L6.96848 23.7176V37.0183H20.3982C21.7653 37.0145 23.0753 36.4493 24.0416 35.4463C25.0079 34.4433 25.5518 33.0843 25.5542 31.6665V23.2967C25.5546 22.2637 25.2353 21.2579 24.6434 20.4271C24.0515 19.5963 23.2182 18.9844 22.2659 18.6813C23.2182 18.3783 24.0515 17.7664 24.6434 16.9356C25.2353 16.1048 25.5546 15.099 25.5542 14.066V5.58623C25.5445 4.20252 25.0095 2.87848 24.0652 1.90092C23.1208 0.923361 21.8431 0.370999 20.5088 0.363487L6.96848 0.349139V13.186L5.04535 18.4374ZM6.96848 13.186V23.7176L12.0738 27.1659L10.04 21.6036L13.9324 18.447H8.88701L6.96848 13.186ZM19.5497 29.1025C19.6714 28.7978 19.734 28.4713 19.734 28.1416V24.2102C19.734 23.8804 19.6714 23.5539 19.5497 23.2493C19.4281 22.9446 19.2497 22.6678 19.0249 22.4347C18.8001 22.2015 18.5331 22.0166 18.2394 21.8904C17.9456 21.7642 17.6308 21.6992 17.3128 21.6992H13.4666V30.6525H17.3128C17.6308 30.6525 17.9456 30.5876 18.2394 30.4614C18.5331 30.3352 18.8001 30.1502 19.0249 29.9171C19.2497 29.6839 19.4281 29.4071 19.5497 29.1025ZM19.5497 13.7977C19.6714 13.4931 19.734 13.1666 19.734 12.8368V9.2498C19.734 8.92006 19.6714 8.59355 19.5497 8.28891C19.4281 7.98427 19.2497 7.70746 19.0249 7.4743C18.8001 7.24114 18.5331 7.05619 18.2394 6.93C17.9456 6.80381 17.6308 6.73887 17.3128 6.73887H13.4666V15.3478H17.3128C17.6308 15.3478 17.9456 15.2828 18.2394 15.1566C18.5331 15.0305 18.8001 14.8455 19.0249 14.6123C19.2497 14.3792 19.4281 14.1024 19.5497 13.7977Z" fill="white"/>
</svg>
