<svg width="142" height="54" viewBox="0 0 142 54" fill="none" xmlns="http://www.w3.org/2000/svg">
<path d="M5.92313 46.3378C5.92313 47.8964 6.32645 49.0973 7.13309 49.9404C7.93973 50.7835 8.98335 51.205 10.2639 51.205C11.4944 51.205 12.4492 50.8769 13.1282 50.2206C13.8118 49.5644 14.1832 48.7464 14.2425 47.7665L14.2493 47.6298H12.4036L12.3968 47.7665C12.3557 48.3544 12.1621 48.8329 11.8157 49.2021C11.4694 49.5712 10.9521 49.7558 10.2639 49.7558C9.51655 49.7558 8.91955 49.4755 8.47293 48.915C8.02632 48.3544 7.80301 47.5455 7.80301 46.4882V45.5585C7.80301 44.4147 8.02859 43.5852 8.47977 43.0703C8.9355 42.5507 9.52567 42.291 10.2503 42.291C10.9749 42.291 11.5149 42.4687 11.8704 42.8242C12.2259 43.1796 12.4036 43.6627 12.4036 44.2734V44.4238H14.2493V44.287C14.2493 43.2981 13.8916 42.4778 13.1761 41.8261C12.4651 41.1699 11.4944 40.8417 10.2639 40.8417C8.9879 40.8417 7.94429 41.261 7.13309 42.0995C6.32645 42.9381 5.92313 44.1412 5.92313 45.7089V46.3378ZM17.7914 46.3378C17.7914 47.9055 18.1993 49.1087 19.015 49.9472C19.8308 50.7857 20.879 51.205 22.1596 51.205C23.4447 51.205 24.4975 50.7857 25.3178 49.9472C26.1381 49.1087 26.5482 47.9055 26.5482 46.3378V45.7089C26.5482 44.1412 26.1381 42.9381 25.3178 42.0995C24.4975 41.261 23.4447 40.8417 22.1596 40.8417C20.879 40.8417 19.8308 41.261 19.015 42.0995C18.1993 42.9381 17.7914 44.1412 17.7914 45.7089V46.3378ZM19.6645 46.4609V45.5859C19.6645 44.5058 19.89 43.6878 20.3412 43.1318C20.7969 42.5712 21.4031 42.291 22.1596 42.291C22.9206 42.291 23.529 42.5712 23.9848 43.1318C24.4451 43.6878 24.6752 44.5058 24.6752 45.5859V46.4609C24.6752 47.541 24.4451 48.3613 23.9848 48.9218C23.529 49.4778 22.9206 49.7558 22.1596 49.7558C21.4031 49.7558 20.7969 49.4778 20.3412 48.9218C19.89 48.3613 19.6645 47.541 19.6645 46.4609ZM30.7466 50.9999H32.3052V44.3691C32.3052 44.2232 32.3029 44.0615 32.2984 43.8837C32.2938 43.7014 32.2824 43.5374 32.2642 43.3915H32.3189C32.3462 43.5374 32.3827 43.7014 32.4282 43.8837C32.4784 44.0615 32.5308 44.2232 32.5855 44.3691L35.0806 50.9999H36.605L39.107 44.3691C39.1616 44.2232 39.2118 44.0615 39.2573 43.8837C39.3075 43.7014 39.3462 43.5374 39.3736 43.3915H39.4282C39.41 43.5374 39.3963 43.7014 39.3872 43.8837C39.3827 44.0615 39.3804 44.2232 39.3804 44.3691V50.9999H41.1919V41.0468H38.813L36.2359 47.8417C36.1812 47.9876 36.131 48.1311 36.0855 48.2724C36.0445 48.4137 36.008 48.5618 35.9761 48.7167H35.9282C35.8963 48.5618 35.8576 48.4137 35.812 48.2724C35.771 48.1311 35.7232 47.9876 35.6685 47.8417L33.0982 41.0468H30.7466V50.9999ZM45.7526 50.9999H47.5914V41.0468H45.7526V50.9999ZM51.783 46.3378C51.783 47.8964 52.1863 49.0973 52.9929 49.9404C53.7996 50.7835 54.8432 51.205 56.1238 51.205C57.3543 51.205 58.309 50.8769 58.988 50.2206C59.6716 49.5644 60.0431 48.7464 60.1023 47.7665L60.1091 47.6298H58.2634L58.2566 47.7665C58.2156 48.3544 58.0219 48.8329 57.6755 49.2021C57.3292 49.5712 56.8119 49.7558 56.1238 49.7558C55.3764 49.7558 54.7794 49.4755 54.3328 48.915C53.8862 48.3544 53.6629 47.5455 53.6629 46.4882V45.5585C53.6629 44.4147 53.8884 43.5852 54.3396 43.0703C54.7953 42.5507 55.3855 42.291 56.1101 42.291C56.8347 42.291 57.3748 42.4687 57.7302 42.8242C58.0857 43.1796 58.2634 43.6627 58.2634 44.2734V44.4238H60.1091V44.287C60.1091 43.2981 59.7514 42.4778 59.0359 41.8261C58.325 41.1699 57.3543 40.8417 56.1238 40.8417C54.8477 40.8417 53.8041 41.261 52.9929 42.0995C52.1863 42.9381 51.783 44.1412 51.783 45.7089V46.3378ZM69.8252 50.9999H71.6572V47.3701H73.4482C74.5876 47.3701 75.4626 47.0898 76.0732 46.5292C76.6839 45.9641 76.9893 45.1871 76.9893 44.1982C76.9893 43.2047 76.6839 42.4322 76.0732 41.8808C75.4626 41.3248 74.5898 41.0468 73.4551 41.0468H69.8252V50.9999ZM71.6572 45.9687V42.455H73.3252C74.0133 42.455 74.4896 42.6145 74.7539 42.9335C75.0228 43.248 75.1572 43.6695 75.1572 44.1982C75.1572 44.7314 75.0228 45.1598 74.7539 45.4833C74.4896 45.8069 74.0133 45.9687 73.3252 45.9687H71.6572ZM80.8048 50.9999H82.6368V47.2402H84.298C85.4282 47.2402 86.3055 46.9599 86.9298 46.3994C87.5587 45.8388 87.8732 45.0777 87.8732 44.1161C87.8732 43.1591 87.561 42.4094 86.9366 41.8671C86.3123 41.3203 85.435 41.0468 84.3048 41.0468H80.8048V50.9999ZM82.6368 45.8525V42.4413H84.257C84.9132 42.4413 85.3735 42.5963 85.6378 42.9062C85.9067 43.2115 86.0411 43.6194 86.0411 44.1298C86.0411 44.6402 85.9067 45.055 85.6378 45.374C85.3735 45.693 84.9132 45.8525 84.257 45.8525H82.6368ZM86.3214 50.9999H88.3722L85.8497 46.2763L83.9425 46.4062L86.3214 50.9999ZM91.9963 50.9999H93.8352V41.0468H91.9963V50.9999ZM98.0267 46.3378C98.0267 47.8964 98.43 49.0973 99.2367 49.9404C100.043 50.7835 101.087 51.205 102.368 51.205C103.598 51.205 104.553 50.8769 105.232 50.2206C105.915 49.5644 106.287 48.7464 106.346 47.7665L106.353 47.6298H104.507L104.5 47.7665C104.459 48.3544 104.266 48.8329 103.919 49.2021C103.573 49.5712 103.056 49.7558 102.368 49.7558C101.62 49.7558 101.023 49.4755 100.577 48.915C100.13 48.3544 99.9066 47.5455 99.9066 46.4882V45.5585C99.9066 44.4147 100.132 43.5852 100.583 43.0703C101.039 42.5507 101.629 42.291 102.354 42.291C103.078 42.291 103.619 42.4687 103.974 42.8242C104.329 43.1796 104.507 43.6627 104.507 44.2734V44.4238H106.353V44.287C106.353 43.2981 105.995 42.4778 105.28 41.8261C104.569 41.1699 103.598 40.8417 102.368 40.8417C101.091 40.8417 100.048 41.261 99.2367 42.0995C98.43 42.9381 98.0267 44.1412 98.0267 45.7089V46.3378ZM110.264 50.9999H112.103V41.0468H110.264V50.9999ZM116.671 50.9999H118.311V44.7177C118.311 44.5719 118.309 44.4192 118.304 44.2597C118.3 44.0956 118.295 43.9407 118.291 43.7949H118.338C118.393 43.927 118.452 44.0592 118.516 44.1913C118.58 44.3235 118.653 44.4579 118.735 44.5947L122.597 50.9999H124.573V41.0468H122.939V47.3837C122.939 47.5341 122.939 47.6845 122.939 47.8349C122.944 47.9807 122.948 48.1266 122.953 48.2724H122.898C122.848 48.1402 122.789 48.0126 122.72 47.8896C122.657 47.762 122.584 47.6275 122.502 47.4863L118.612 41.0468H116.671V50.9999ZM128.764 46.3378C128.764 47.9055 129.17 49.1087 129.981 49.9472C130.792 50.7857 131.898 51.205 133.297 51.205C134.208 51.205 134.981 51.0615 135.614 50.7744C136.247 50.4827 136.733 50.1682 137.07 49.831V45.8456H133.16V47.2402H135.272V49.2021C134.99 49.3981 134.696 49.5416 134.39 49.6328C134.085 49.7193 133.72 49.7626 133.297 49.7626C132.467 49.7626 131.815 49.4869 131.342 48.9355C130.872 48.3795 130.637 47.5615 130.637 46.4814V45.5654C130.637 44.499 130.863 43.6878 131.314 43.1318C131.765 42.5712 132.362 42.291 133.105 42.291C133.798 42.291 134.324 42.4641 134.684 42.8105C135.044 43.1568 135.224 43.5488 135.224 43.9863V44.0546H137.063V43.9658C137.036 43.0908 136.678 42.3525 135.99 41.7509C135.302 41.1448 134.361 40.8417 133.167 40.8417C131.85 40.8417 130.786 41.261 129.974 42.0995C129.168 42.9381 128.764 44.1412 128.764 45.7089V46.3378Z" fill="white"/>
<path fill-rule="evenodd" clip-rule="evenodd" d="M56.8778 30.4939V22.2341H63.3805V32.0339C63.3805 32.7543 63.2436 33.4677 62.9778 34.1332C62.712 34.7988 62.3223 35.4036 61.8311 35.913C61.3399 36.4224 60.7568 36.8265 60.115 37.1021C59.4732 37.3778 58.7854 37.5197 58.0907 37.5197H50.947C50.2521 37.5203 49.564 37.3789 48.9219 37.1034C48.2799 36.828 47.6965 36.4239 47.2052 35.9144C46.7138 35.4048 46.3242 34.7998 46.0586 34.134C45.793 33.4681 45.6566 32.7545 45.6572 32.0339V5.64282C45.6559 4.20009 46.2062 2.81566 47.1873 1.7928C48.1684 0.769944 49.5004 0.192057 50.8916 0.18573H58.063C59.4612 0.193315 60.7995 0.774627 61.7856 1.80259C62.7716 2.83056 63.3251 4.22156 63.3251 5.67152V15.5239H56.8686V7.26895H52.1138V30.4939H56.8778ZM87.7033 37.1945L79.4666 18.8719L87.7033 0.554H80.7256L72.6272 18.5642V0.553997H66.1107V37.1945H72.6272V19.1796L80.7256 37.1945H87.7033ZM104.426 0.554V7.25461H96.3736V15.5239H104.426V22.2198H96.3736V30.4939H104.426V37.1945H89.8616H89.857L89.8616 0.554H104.426ZM138.223 34.3078C138.027 34.613 137.922 34.9718 137.922 35.3388C137.913 35.5848 137.954 35.83 138.041 36.0591C138.128 36.2882 138.259 36.4962 138.427 36.6703C138.595 36.8444 138.796 36.9808 139.016 37.0709C139.237 37.1611 139.474 37.2032 139.711 37.1945C140.065 37.1945 140.411 37.0857 140.705 36.8818C140.999 36.6778 141.229 36.388 141.364 36.0489C141.5 35.7099 141.535 35.3367 141.466 34.9768C141.397 34.6168 141.227 34.2861 140.976 34.0266C140.726 33.7671 140.407 33.5904 140.06 33.5187C139.713 33.4471 139.353 33.4839 139.026 33.6243C138.699 33.7648 138.42 34.0027 138.223 34.3078ZM140.88 34.5416C141.032 34.7776 141.113 35.055 141.113 35.3388H141.122C141.122 35.528 141.086 35.7154 141.016 35.8901C140.946 36.0648 140.843 36.2234 140.714 36.3568C140.584 36.4901 140.431 36.5956 140.262 36.6672C140.093 36.7387 139.912 36.7749 139.729 36.7736C139.456 36.7736 139.188 36.6895 138.961 36.5318C138.733 36.3741 138.556 36.1501 138.451 35.8879C138.347 35.6257 138.319 35.3372 138.372 35.0589C138.426 34.7805 138.558 34.5249 138.751 34.3242C138.945 34.1236 139.191 33.9869 139.46 33.9315C139.728 33.8762 140.006 33.9046 140.259 34.0132C140.512 34.1218 140.728 34.3057 140.88 34.5416ZM138.945 34.4157V36.2379H139.319V35.6449H140.172V36.2379H140.546V35.6975C140.549 35.6716 140.546 35.6454 140.538 35.6208C140.53 35.5962 140.516 35.5738 140.498 35.5554C140.481 35.537 140.459 35.523 140.435 35.5145C140.412 35.5059 140.386 35.5031 140.361 35.5062H140.048V35.3531C140.357 35.3244 140.546 35.2479 140.546 34.9418C140.546 34.5162 140.094 34.4157 139.674 34.4157H138.945ZM139.674 35.2814H139.319V34.8318H139.674L139.71 34.8318C139.998 34.8314 140.172 34.8312 140.172 35.0518C140.172 35.2814 139.983 35.2814 139.674 35.2814ZM124.201 0.554H107.133V7.25461H111.542V37.1945H118.058V7.25461H121.748L124.201 0.554ZM126.927 0.554H141.496V7.25939H136.437V37.1945H129.92V7.25939H124.473L126.927 0.554ZM42.8762 0.554V7.25461H34.824V15.5239H42.8762V22.2341H34.824V30.4939H42.8762V37.1945H28.3167H28.3121L28.3167 0.554H42.8762ZM5.04535 18.6232H0L3.89239 21.7798L1.85857 27.3421L6.96848 23.9033V37.2041H20.3982C21.7653 37.2003 23.0753 36.635 24.0416 35.6321C25.0079 34.6291 25.5518 33.27 25.5542 31.8522V23.4824C25.5546 22.4494 25.2353 21.4436 24.6434 20.6128C24.0515 19.782 23.2182 19.1701 22.2659 18.8671C23.2182 18.564 24.0515 17.9521 24.6434 17.1213C25.2353 16.2905 25.5546 15.2847 25.5542 14.2517V5.77196C25.5445 4.38825 25.0095 3.06421 24.0652 2.08665C23.1208 1.10909 21.8431 0.556729 20.5088 0.549217L6.96848 0.534869V13.3717L5.04535 18.6232ZM6.96848 13.3717V23.9033L12.0738 27.3516L10.04 21.7893L13.9324 18.6327H8.88701L6.96848 13.3717ZM19.5497 29.2882C19.6714 28.9836 19.734 28.6571 19.734 28.3273V24.3959C19.734 24.0662 19.6714 23.7397 19.5497 23.435C19.4281 23.1304 19.2497 22.8536 19.0249 22.6204C18.8001 22.3873 18.5331 22.2023 18.2394 22.0761C17.9456 21.9499 17.6308 21.885 17.3128 21.885H13.4666V30.8382H17.3128C17.6308 30.8382 17.9456 30.7733 18.2394 30.6471C18.5331 30.5209 18.8001 30.336 19.0249 30.1028C19.2497 29.8697 19.4281 29.5928 19.5497 29.2882ZM19.5497 13.9835C19.6714 13.6788 19.734 13.3523 19.734 13.0226V9.43553C19.734 9.10579 19.6714 8.77928 19.5497 8.47464C19.4281 8.17 19.2497 7.89319 19.0249 7.66003C18.8001 7.42687 18.5331 7.24192 18.2394 7.11573C17.9456 6.98954 17.6308 6.9246 17.3128 6.9246H13.4666V15.5335H17.3128C17.6308 15.5335 17.9456 15.4686 18.2394 15.3424C18.5331 15.2162 18.8001 15.0312 19.0249 14.7981C19.2497 14.5649 19.4281 14.2881 19.5497 13.9835Z" fill="white"/>
</svg>
