<svg width="31" height="30" viewBox="0 0 31 30" fill="none" xmlns="http://www.w3.org/2000/svg">
<g clip-path="url(#clip0_2110_4594)">
<path d="M29.0668 9.72443L20.7577 8.51667L17.0439 1.00929C16.3785 -0.328887 14.4505 -0.345897 13.7794 1.00929L10.0657 8.51667L1.75658 9.72443C0.266516 9.93989 -0.330646 11.7714 0.749933 12.8204L6.76136 18.6607L5.33955 26.9109C5.08362 28.4022 6.65899 29.5192 7.97843 28.8217L15.4117 24.9263L22.8449 28.8217C24.1644 29.5135 25.7397 28.4022 25.4838 26.9109L24.062 18.6607L30.0734 12.8204C31.154 11.7714 30.5568 9.93989 29.0668 9.72443V9.72443ZM21.1331 17.7081L22.4809 25.5557L15.4117 21.853L8.34242 25.5557L9.6903 17.7081L3.96892 12.1513L11.8742 11.0059L15.4117 3.86141L18.9492 11.0059L26.8544 12.1513L21.1331 17.7081V17.7081Z" fill="url(#paint0_linear_2110_4594)"/>
</g>
<defs>
<linearGradient id="paint0_linear_2110_4594" x1="8.5" y1="4" x2="23.5" y2="28.5" gradientUnits="userSpaceOnUse">
<stop stop-color="#C1F8E3"/>
<stop offset="1" stop-color="#6CD7D4"/>
</linearGradient>
<clipPath id="clip0_2110_4594">
<rect width="30.967" height="30" fill="white" transform="translate(0 -0.000732422)"/>
</clipPath>
</defs>
</svg>
