<svg width="264" height="242" viewBox="0 0 264 242" fill="none" xmlns="http://www.w3.org/2000/svg">
<path d="M3 167.928L113.67 232.451L260.234 146.136" stroke="#929EAF" stroke-width="8" stroke-linejoin="round"/>
<path fill-rule="evenodd" clip-rule="evenodd" d="M152.654 74.3164C151.729 73.7816 150.589 73.7795 149.662 74.3109L1.5084 159.21C0.647511 159.703 0.0907582 160.587 0.0101365 161.566H4.47035e-08V161.812C-1.49012e-08 161.813 -1.49012e-08 161.813 4.47035e-08 161.813V174.4C4.47035e-08 175.472 0.572233 176.463 1.501 176.998L112.314 240.919C113.251 241.46 114.407 241.454 115.339 240.904L262.431 154.03C263.345 153.491 263.905 152.509 263.905 151.447V140.35C263.905 140.344 263.905 140.339 263.905 140.333V140.095H263.895C263.815 139.119 263.262 138.238 262.407 137.744L152.654 74.3164ZM257.905 145.573L115.259 229.063C114.324 229.611 113.166 229.611 112.231 229.065L6 167.038V172.667L113.795 234.847L257.905 149.735V145.573ZM113.741 222.999L8.99136 161.837L151.147 80.3751L254.938 140.358L113.741 222.999Z" fill="#DFEAEF"/>
<path d="M255.875 140.351L150.494 79.4777L7.69922 161.946L113.738 223.529L255.875 140.351Z" fill="url(#paint0_linear_893_1797)"/>
<path d="M211.053 153.915L126.154 104.555L28.668 161.073L114.061 210.679L211.053 153.915Z" fill="url(#paint1_linear_893_1797)"/>
<path d="M211.053 153.915L126.154 104.555L28.668 161.073L114.061 210.679L211.053 153.915Z" stroke="#DFEAEF" stroke-width="6" stroke-linejoin="round"/>
<line x1="139.391" y1="98.5588" x2="219.615" y2="145.859" stroke="#093F68" stroke-width="6" stroke-linecap="round"/>
<line x1="150.747" y1="91.1549" x2="230.971" y2="138.455" stroke="#093F68" stroke-width="6" stroke-linecap="round"/>
<path d="M3 144.854L113.67 209.376L260.234 123.062" stroke="#929EAF" stroke-width="8" stroke-linejoin="round"/>
<path fill-rule="evenodd" clip-rule="evenodd" d="M152.654 51.2422C151.729 50.7074 150.589 50.7053 149.662 51.2367L1.5084 136.136C0.647545 136.629 0.0908016 137.513 0.0101459 138.492H4.47035e-08V138.738C-1.49012e-08 138.739 -1.49012e-08 138.739 4.47035e-08 138.739V151.325C4.47035e-08 152.398 0.572233 153.388 1.501 153.924L112.314 217.845C113.251 218.386 114.407 218.38 115.339 217.83L262.431 130.956C263.345 130.416 263.905 129.434 263.905 128.373V117.275C263.905 117.27 263.905 117.264 263.905 117.259V117.02H263.895C263.815 116.045 263.262 115.164 262.407 114.67L152.654 51.2422ZM257.905 122.499L115.259 205.989C114.324 206.536 113.166 206.537 112.231 205.991L6 143.964V149.593L113.795 211.773L257.905 126.661V122.499ZM113.741 199.925L8.99136 138.763L151.147 57.3009L254.938 117.284L113.741 199.925Z" fill="#DFEAEF"/>
<path d="M255.875 117.276L150.494 56.4034L7.69922 138.872L113.738 200.454L255.875 117.276Z" fill="url(#paint2_linear_893_1797)"/>
<path d="M211.053 130.841L126.154 81.4812L28.668 137.998L114.061 187.605L211.053 130.841Z" fill="url(#paint3_linear_893_1797)"/>
<path d="M211.053 130.841L126.154 81.4812L28.668 137.998L114.061 187.605L211.053 130.841Z" stroke="#DFEAEF" stroke-width="6" stroke-linejoin="round"/>
<line x1="139.391" y1="75.4846" x2="219.615" y2="122.784" stroke="#093F68" stroke-width="6" stroke-linecap="round"/>
<line x1="150.747" y1="68.0808" x2="230.971" y2="115.381" stroke="#093F68" stroke-width="6" stroke-linecap="round"/>
<path d="M3 121.78L113.67 186.302L260.234 99.9879" stroke="#929EAF" stroke-width="8" stroke-linejoin="round"/>
<path fill-rule="evenodd" clip-rule="evenodd" d="M152.654 28.1681C151.729 27.6333 150.589 27.6312 149.662 28.1626L1.5084 113.062C0.647545 113.555 0.0908016 114.439 0.0101459 115.418H4.47035e-08V115.664C-1.49012e-08 115.664 -1.49012e-08 115.665 4.47035e-08 115.665V128.251C4.47035e-08 129.323 0.572233 130.314 1.501 130.85L112.314 194.771C113.251 195.312 114.407 195.306 115.339 194.755L262.431 107.882C263.345 107.342 263.905 106.36 263.905 105.299V94.2012C263.905 94.1957 263.905 94.1902 263.905 94.1847V93.9461H263.895C263.815 92.9711 263.262 92.0901 262.407 91.5955L152.654 28.1681ZM257.905 99.4249L115.259 182.915C114.324 183.462 113.166 183.463 112.231 182.917L6 120.89V126.518L113.795 188.699L257.905 103.587V99.4249ZM113.741 176.851L8.99136 115.689L151.147 34.2268L254.938 94.2094L113.741 176.851Z" fill="#DFEAEF"/>
<path d="M255.875 94.2022L150.494 33.3292L7.69922 115.798L113.738 177.38L255.875 94.2022Z" fill="url(#paint4_linear_893_1797)"/>
<path d="M211.053 107.767L126.154 58.4072L28.668 114.924L114.061 164.531L211.053 107.767Z" fill="url(#paint5_linear_893_1797)"/>
<path d="M211.053 107.767L126.154 58.4072L28.668 114.924L114.061 164.531L211.053 107.767Z" stroke="#DFEAEF" stroke-width="6" stroke-linejoin="round"/>
<line x1="139.391" y1="52.4105" x2="219.615" y2="99.7102" stroke="#093F68" stroke-width="6" stroke-linecap="round"/>
<line x1="150.747" y1="45.0067" x2="230.971" y2="92.3064" stroke="#093F68" stroke-width="6" stroke-linecap="round"/>
<path d="M18.2821 34.6296C18.2821 34.6296 18.8461 44.2901 6.79492 47.5144C6.79492 47.5144 15.8915 47.3673 18.6499 60.485C18.6499 60.485 19.6797 47.7719 30.4926 46.5091C30.4926 46.5091 20.354 47.4041 18.2821 34.6296Z" fill="#FFD600"/>
<path d="M18.653 61.7109C18.3679 61.7173 18.0896 61.624 17.8658 61.4472C17.6421 61.2705 17.4869 61.0212 17.4271 60.7424C14.9752 48.8997 7.17811 48.7403 6.79807 48.7403C6.49874 48.7429 6.20884 48.6358 5.983 48.4393C5.75717 48.2428 5.61102 47.9705 5.57211 47.6737C5.53518 47.3805 5.6054 47.0839 5.76984 46.8383C5.93428 46.5928 6.18188 46.4149 6.46706 46.3375C17.3535 43.4197 17.0716 35.0464 17.0593 34.6909C17.0252 34.3657 17.1216 34.0404 17.3274 33.7863C17.5331 33.5322 17.8314 33.3704 18.1565 33.3362C18.4817 33.3021 18.8071 33.3985 19.0611 33.6043C19.3152 33.81 19.4771 34.1083 19.5112 34.4334C21.3869 45.9451 30.0422 45.3199 30.4099 45.2831C30.7351 45.2506 31.0598 45.3486 31.3127 45.5555C31.5656 45.7624 31.726 46.0613 31.7585 46.3865C31.791 46.7116 31.693 47.0364 31.4861 47.2893C31.2792 47.5422 30.9803 47.7025 30.6551 47.735C20.9824 48.8752 19.928 60.1294 19.879 60.6076C19.8533 60.899 19.7243 61.1716 19.5152 61.3762C19.3061 61.5807 19.0308 61.7038 18.7389 61.7232L18.653 61.7109ZM10.905 47.3305C14.4348 49.0208 17.1567 52.0334 18.4814 55.716C18.7389 54.9927 19.0453 54.2203 19.4131 53.4357C20.6799 50.6403 22.8002 48.3183 25.4693 46.8033C23.8807 46.1535 22.4402 45.1883 21.2349 43.9662C20.0297 42.7441 19.0846 41.2903 18.4569 39.6928C16.9922 43.0995 14.2949 45.8273 10.905 47.3305Z" fill="#346E99"/>
<path d="M243.968 1.56897C243.968 1.56897 244.649 13.2271 230.105 17.118C230.105 17.118 241.083 16.9405 244.412 32.7707C244.412 32.7707 245.655 17.4287 258.703 15.9049C258.703 15.9049 246.468 16.9849 243.968 1.56897Z" fill="#FFD600"/>
<path d="M244.413 34.2501C244.069 34.2578 243.733 34.1452 243.463 33.9319C243.193 33.7186 243.005 33.4178 242.933 33.0813C239.974 18.7898 230.565 18.5975 230.106 18.5975C229.745 18.6005 229.395 18.4713 229.123 18.2342C228.85 17.9971 228.674 17.6685 228.627 17.3104C228.582 16.9565 228.667 16.5985 228.865 16.3022C229.064 16.0059 229.363 15.7912 229.707 15.6977C242.844 12.1766 242.504 2.07197 242.489 1.64293C242.448 1.25055 242.564 0.85788 242.813 0.551296C243.061 0.244713 243.421 0.0493377 243.813 0.00813826C244.206 -0.0330612 244.598 0.0832918 244.905 0.331611C245.212 0.57993 245.407 0.939869 245.448 1.33224C247.712 15.2243 258.157 14.4698 258.601 14.4254C258.993 14.3862 259.385 14.5044 259.69 14.7541C259.995 15.0038 260.189 15.3645 260.228 15.7569C260.267 16.1493 260.149 16.5412 259.899 16.8464C259.65 17.1516 259.289 17.3451 258.896 17.3843C247.224 18.7602 245.951 32.3416 245.892 32.9186C245.861 33.2702 245.705 33.5992 245.453 33.8461C245.201 34.093 244.868 34.2416 244.516 34.2649L244.413 34.2501ZM235.062 16.8961C239.322 18.9359 242.607 22.5715 244.205 27.0156C244.516 26.1427 244.886 25.2106 245.33 24.2638C246.859 20.8903 249.417 18.0881 252.638 16.2599C250.721 15.4757 248.983 14.311 247.528 12.8362C246.074 11.3613 244.933 9.607 244.176 7.67911C242.408 11.7902 239.153 15.0822 235.062 16.8961Z" fill="#346E99"/>
<path d="M200.117 109.552C200.117 109.552 200.558 117.114 191.125 119.638C191.125 119.638 198.246 119.522 200.405 129.791C200.405 129.791 201.211 119.839 209.675 118.851C209.675 118.851 201.739 119.551 200.117 109.552Z" fill="#FFD600"/>
<path d="M200.405 130.75C200.182 130.755 199.964 130.682 199.789 130.544C199.614 130.406 199.492 130.21 199.446 129.992C197.526 120.722 191.423 120.597 191.125 120.597C190.891 120.599 190.664 120.515 190.487 120.362C190.311 120.208 190.196 119.995 190.166 119.762C190.137 119.533 190.192 119.301 190.321 119.108C190.449 118.916 190.643 118.777 190.866 118.716C199.388 116.432 199.167 109.878 199.158 109.6C199.131 109.345 199.206 109.091 199.367 108.892C199.529 108.693 199.762 108.566 200.016 108.539C200.271 108.513 200.526 108.588 200.725 108.749C200.923 108.91 201.05 109.144 201.077 109.398C202.545 118.409 209.32 117.92 209.608 117.891C209.863 117.866 210.117 117.942 210.315 118.104C210.513 118.266 210.638 118.5 210.664 118.755C210.689 119.009 210.613 119.263 210.451 119.461C210.289 119.659 210.055 119.785 209.8 119.81C202.228 120.703 201.403 129.512 201.365 129.887C201.345 130.115 201.244 130.328 201.08 130.488C200.916 130.648 200.701 130.745 200.472 130.76L200.405 130.75ZM194.34 119.494C197.103 120.817 199.234 123.175 200.271 126.058C200.472 125.491 200.712 124.887 201 124.273C201.992 122.085 203.651 120.267 205.741 119.081C204.497 118.572 203.37 117.817 202.426 116.86C201.483 115.904 200.743 114.766 200.252 113.515C199.105 116.182 196.994 118.317 194.34 119.494Z" fill="#27608B"/>
<defs>
<linearGradient id="paint0_linear_893_1797" x1="115.379" y1="223.905" x2="154.263" y2="81.1869" gradientUnits="userSpaceOnUse">
<stop stop-color="#6CD7D4"/>
<stop offset="1" stop-color="#C3FAE4"/>
</linearGradient>
<linearGradient id="paint1_linear_893_1797" x1="84.6141" y1="172.201" x2="178.193" y2="114.516" gradientUnits="userSpaceOnUse">
<stop stop-color="#093F68"/>
<stop offset="0.0001" stop-color="#093F68"/>
<stop offset="1" stop-color="#67CBCA"/>
</linearGradient>
<linearGradient id="paint2_linear_893_1797" x1="115.379" y1="200.831" x2="154.263" y2="58.1126" gradientUnits="userSpaceOnUse">
<stop stop-color="#6CD7D4"/>
<stop offset="1" stop-color="#C3FAE4"/>
</linearGradient>
<linearGradient id="paint3_linear_893_1797" x1="84.6141" y1="149.127" x2="178.193" y2="91.4419" gradientUnits="userSpaceOnUse">
<stop stop-color="#093F68"/>
<stop offset="0.0001" stop-color="#093F68"/>
<stop offset="1" stop-color="#67CBCA"/>
</linearGradient>
<linearGradient id="paint4_linear_893_1797" x1="115.379" y1="177.756" x2="154.263" y2="35.0384" gradientUnits="userSpaceOnUse">
<stop stop-color="#6CD7D4"/>
<stop offset="1" stop-color="#C3FAE4"/>
</linearGradient>
<linearGradient id="paint5_linear_893_1797" x1="84.6141" y1="126.053" x2="178.193" y2="68.3679" gradientUnits="userSpaceOnUse">
<stop stop-color="#093F68"/>
<stop offset="0.0001" stop-color="#093F68"/>
<stop offset="1" stop-color="#67CBCA"/>
</linearGradient>
</defs>
</svg>
