<svg width="229" height="269" viewBox="0 0 229 269" fill="none" xmlns="http://www.w3.org/2000/svg">
<path d="M1.30469 254.404H227.227V259.422C227.227 261.557 226.446 263.605 225.054 265.115C223.662 266.625 221.775 267.473 219.807 267.473H8.72483C6.75689 267.473 4.86955 266.625 3.478 265.115C2.08645 263.605 1.30469 261.557 1.30469 259.422V254.404Z" fill="#DFEAEF"/>
<path d="M219.809 268.89H8.72651C6.41316 268.886 4.19554 267.888 2.55975 266.113C0.923965 264.338 0.00345535 261.932 0 259.422V254.404C0 254.028 0.137633 253.667 0.382624 253.402C0.627615 253.136 0.959895 252.986 1.30636 252.986H227.229C227.575 252.986 227.908 253.136 228.153 253.402C228.398 253.667 228.535 254.028 228.535 254.404V259.422C228.532 261.932 227.611 264.338 225.976 266.113C224.34 267.888 222.122 268.886 219.809 268.89ZM2.61273 255.821V259.422C2.61618 261.18 3.26141 262.865 4.40722 264.108C5.55303 265.351 7.1061 266.052 8.72651 266.055H219.809C221.429 266.052 222.982 265.351 224.128 264.108C225.274 262.865 225.919 261.18 225.923 259.422V255.821H2.61273Z" fill="#DFEAEF"/>
<path d="M197.6 50.5604H30.9475C25.4138 50.5604 20.9277 55.4279 20.9277 61.4323V175.806C20.9277 181.811 25.4138 186.678 30.9475 186.678H197.6C203.134 186.678 207.62 181.811 207.62 175.806V61.4323C207.62 55.4279 203.134 50.5604 197.6 50.5604Z" fill="url(#paint0_linear_863_1749)"/>
<path d="M197.6 188.096H30.9342C27.9336 188.088 25.0581 186.79 22.9376 184.487C20.8171 182.184 19.6245 179.062 19.6211 175.806V61.4322C19.6245 58.1765 20.8171 55.055 22.9376 52.7515C25.0581 50.4481 27.9336 49.1504 30.9342 49.1429H197.6C200.601 49.1504 203.476 50.4481 205.597 52.7515C207.717 55.055 208.91 58.1765 208.913 61.4322V175.806C208.91 179.062 207.717 182.184 205.597 184.487C203.476 186.79 200.601 188.088 197.6 188.096ZM30.9342 52.0204C28.6255 52.0241 26.4126 53.0219 24.7813 54.7945C23.15 56.5671 22.2338 58.9697 22.2338 61.4748V175.849C22.2338 178.354 23.15 180.756 24.7813 182.529C26.4126 184.302 28.6255 185.299 30.9342 185.303H197.6C199.909 185.299 202.122 184.302 203.753 182.529C205.384 180.756 206.3 178.354 206.3 175.849V61.4322C206.3 58.9272 205.384 56.5246 203.753 54.752C202.122 52.9793 199.909 51.9816 197.6 51.9778L30.9342 52.0204Z" fill="#DFEAEF"/>
<path d="M201.389 186.678H27.1459C25.4336 186.616 23.7463 187.137 22.3215 188.17C20.8967 189.202 19.8061 190.693 19.2032 192.433L1.63263 251.413C0.117244 256.473 4.07553 261.534 9.56225 261.534H218.972C224.459 261.534 228.417 256.473 226.902 251.413L209.331 192.433C208.729 190.693 207.638 189.202 206.213 188.17C204.788 187.137 203.101 186.616 201.389 186.678Z" fill="url(#paint1_linear_863_1749)"/>
<path d="M218.974 262.004H9.56349C8.01708 262.024 6.48797 261.649 5.09931 260.911C3.71065 260.172 2.50127 259.09 1.56855 257.751C0.812351 256.657 0.310618 255.381 0.105941 254.031C-0.0987368 252.681 -0.000321273 251.298 0.392824 249.998L17.9634 191.018C18.6547 189.004 19.9066 187.274 21.5452 186.068C23.1839 184.861 25.1281 184.238 27.108 184.285H201.39C203.37 184.238 205.314 184.861 206.953 186.068C208.591 187.274 209.843 189.004 210.535 191.018L228.105 249.998C228.498 251.298 228.597 252.681 228.392 254.031C228.187 255.381 227.686 256.657 226.929 257.751C226.001 259.084 224.798 260.163 223.416 260.901C222.035 261.639 220.513 262.017 218.974 262.004ZM27.1472 187.148C25.7124 187.088 24.2963 187.516 23.097 188.373C21.8977 189.229 20.9752 190.471 20.4586 191.925L2.87492 250.891C2.60899 251.766 2.54376 252.699 2.68489 253.608C2.82602 254.517 3.16925 255.375 3.68486 256.107C4.3749 257.082 5.26652 257.867 6.2877 258.399C7.30888 258.93 8.43101 259.194 9.56349 259.169H218.974C220.106 259.194 221.228 258.93 222.249 258.399C223.271 257.867 224.162 257.082 224.852 256.107C225.368 255.375 225.711 254.517 225.852 253.608C225.993 252.699 225.928 251.766 225.662 250.891L208.079 191.925C207.562 190.471 206.639 189.229 205.44 188.373C204.241 187.516 202.825 187.088 201.39 187.148H27.1472Z" fill="#DFEAEF"/>
<path d="M194.973 62.9773H33.5586V174.261H194.973V62.9773Z" fill="url(#paint2_linear_863_1749)" fill-opacity="0.6"/>
<path d="M194.975 175.679H33.5603C33.2138 175.679 32.8815 175.529 32.6365 175.264C32.3915 174.998 32.2539 174.637 32.2539 174.261V62.9773C32.2539 62.6014 32.3915 62.2409 32.6365 61.975C32.8815 61.7092 33.2138 61.5599 33.5603 61.5599H194.975C195.321 61.5599 195.653 61.7092 195.898 61.975C196.143 62.2409 196.281 62.6014 196.281 62.9773V174.261C196.281 174.637 196.143 174.998 195.898 175.264C195.653 175.529 195.321 175.679 194.975 175.679ZM34.8666 172.844H193.668V64.3948H34.8666V172.844Z" fill="#DFEAEF"/>
<path d="M199.026 231.682H29.5123C28.5429 231.708 27.5813 231.488 26.7038 231.04C25.8262 230.592 25.0569 229.929 24.4567 229.102C24.0283 228.488 23.74 227.772 23.6151 227.013C23.4902 226.254 23.5324 225.474 23.7382 224.737L31.4327 197.621C31.8723 196.362 32.6676 195.287 33.7048 194.549C34.7419 193.81 35.9677 193.447 37.2068 193.51H191.345C192.584 193.447 193.81 193.81 194.847 194.549C195.884 195.287 196.679 196.362 197.119 197.621L204.813 224.737C205.019 225.474 205.061 226.254 204.936 227.013C204.811 227.772 204.523 228.488 204.095 229.102C203.493 229.931 202.722 230.595 201.842 231.043C200.962 231.491 199.998 231.71 199.026 231.682ZM37.1937 196.345C36.5134 196.289 35.8335 196.461 35.2467 196.839C34.66 197.217 34.1949 197.782 33.9148 198.457L26.2203 225.573C26.1338 225.886 26.1183 226.217 26.1752 226.538C26.2321 226.859 26.3596 227.16 26.5469 227.416C26.9075 227.88 27.3608 228.248 27.8723 228.494C28.3839 228.74 28.9402 228.856 29.4992 228.833H199.026C199.585 228.856 200.141 228.74 200.653 228.494C201.165 228.248 201.618 227.88 201.979 227.416C202.166 227.16 202.293 226.859 202.35 226.538C202.407 226.217 202.392 225.886 202.305 225.573L194.611 198.457C194.33 197.782 193.865 197.217 193.279 196.839C192.692 196.461 192.012 196.289 191.332 196.345H37.1937Z" fill="#DFEAEF"/>
<path d="M140.956 255.821H87.5783C87.3837 255.825 87.1907 255.782 87.0136 255.694C86.8364 255.607 86.6795 255.478 86.5543 255.316C86.4291 255.154 86.3387 254.964 86.2899 254.76C86.241 254.556 86.2349 254.342 86.2719 254.135L89.4463 236.502C89.5074 236.177 89.6716 235.885 89.9103 235.678C90.149 235.471 90.4471 235.361 90.7527 235.368H137.782C138.087 235.361 138.386 235.471 138.624 235.678C138.863 235.885 139.027 236.177 139.088 236.502L142.289 254.092C142.326 254.299 142.32 254.513 142.271 254.718C142.222 254.922 142.132 255.112 142.006 255.274C141.881 255.435 141.724 255.565 141.547 255.652C141.37 255.739 141.177 255.783 140.982 255.779L140.956 255.821ZM89.172 252.987H139.363L136.684 238.245H91.8501L89.172 252.987Z" fill="#DFEAEF"/>
<path d="M77.1144 20.553H66.6635V16.4566C66.6635 12.4717 65.2046 8.65002 62.6077 5.83229C60.0107 3.01456 56.4886 1.43158 52.816 1.43158C49.1434 1.43158 45.6213 3.01456 43.0244 5.83229C40.4275 8.65002 38.9686 12.4717 38.9686 16.4566V20.553V24.6636C38.9703 26.6372 38.6133 28.5919 37.918 30.4156C37.2227 32.2394 36.2028 33.8964 34.9166 35.292C33.6304 36.6876 32.1031 37.7942 30.4223 38.5487C28.7415 39.3031 26.9401 39.6904 25.1211 39.6886H85.044L77.1144 20.553Z" fill="url(#paint3_linear_863_1749)"/>
<path d="M85.0691 41.106H25.1462C24.7997 41.106 24.4675 40.9567 24.2225 40.6909C23.9775 40.4251 23.8398 40.0645 23.8398 39.6886C23.8398 39.3127 23.9775 38.9521 24.2225 38.6863C24.4675 38.4205 24.7997 38.2711 25.1462 38.2711C28.4723 38.2711 31.6622 36.8375 34.0141 34.2856C36.366 31.7337 37.6873 28.2726 37.6873 24.6636V20.553C37.6809 20.5155 37.6809 20.4771 37.6873 20.4396V16.4566C37.6873 12.0958 39.2839 7.91358 42.1257 4.83003C44.9676 1.74648 48.8221 0.0141602 52.8411 0.0141602C56.8602 0.0141602 60.7146 1.74648 63.5565 4.83003C66.3984 7.91358 67.9949 12.0958 67.9949 16.4566V19.1356H77.1395C77.3908 19.1361 77.6366 19.2153 77.8475 19.3637C78.0583 19.512 78.2253 19.7232 78.3283 19.9719L86.2971 39.1074C86.3869 39.3242 86.425 39.5619 86.408 39.7988C86.391 40.0357 86.3194 40.2642 86.1997 40.4632C86.08 40.6622 85.9161 40.8254 85.7231 40.9377C85.5302 41.05 85.3142 41.1079 85.0952 41.106H85.0691ZM33.6506 38.2711H83.0443L76.2642 21.9705H66.7016C66.3552 21.9705 66.0229 21.8211 65.7779 21.5553C65.5329 21.2895 65.3953 20.9289 65.3953 20.553V16.4566C65.3953 14.6696 65.0709 12.9001 64.4406 11.2492C63.8104 9.59827 62.8866 8.09819 61.7221 6.83461C60.5575 5.57104 59.175 4.56871 57.6535 3.88487C56.1319 3.20103 54.5011 2.84906 52.8542 2.84906C51.2073 2.84906 49.5765 3.20103 48.0549 3.88487C46.5334 4.56871 45.1509 5.57104 43.9863 6.83461C42.8218 8.09819 41.898 9.59827 41.2677 11.2492C40.6375 12.9001 40.3131 14.6696 40.3131 16.4566V20.553C40.3131 20.553 40.3131 20.6381 40.3131 20.6664V24.6636C40.3114 27.3497 39.7033 29.9945 38.5419 32.3666C37.3804 34.7387 35.7011 36.766 33.6506 38.2711Z" fill="#DFEAEF"/>
<path d="M11.2988 20.553H39.0068V24.6636C39.0068 28.6485 37.5479 32.4701 34.951 35.2878C32.3541 38.1056 28.8319 39.6886 25.1593 39.6886C21.4868 39.6886 17.9646 38.1056 15.3677 35.2878C12.7708 32.4701 11.3119 28.6485 11.3119 24.6636V20.553H11.2988Z" fill="white"/>
<path d="M25.148 41.106C21.13 41.1023 17.2776 39.3688 14.4364 36.286C11.5953 33.2033 9.9976 29.0233 9.99414 24.6636V20.553C9.99414 20.1771 10.1318 19.8165 10.3768 19.5507C10.6218 19.2849 10.954 19.1356 11.3005 19.1356H39.0085C39.3549 19.1356 39.6872 19.2849 39.9322 19.5507C40.1772 19.8165 40.3148 20.1771 40.3148 20.553V24.6636C40.3079 29.0246 38.7074 33.2045 35.8641 36.2869C33.0209 39.3692 29.1671 41.1023 25.148 41.106ZM12.6069 21.9705V24.6636C12.712 28.1984 14.08 31.5502 16.4217 34.0104C18.7634 36.4705 21.895 37.846 25.1545 37.846C28.414 37.846 31.5456 36.4705 33.8873 34.0104C36.229 31.5502 37.597 28.1984 37.7021 24.6636V21.9705H12.6069Z" fill="#DFEAEF"/>
<path d="M66.7035 16.4282V174.261H170.194V16.9243C170.195 14.8904 169.828 12.8762 169.112 10.9966C168.395 9.11699 167.345 7.40897 166.02 5.97015C164.695 4.53133 163.122 3.38993 161.39 2.61117C159.659 1.83241 157.803 1.43158 155.928 1.43158H52.8691C56.5349 1.43532 60.0498 3.01607 62.6431 5.82727C65.2364 8.63846 66.6966 12.4507 66.7035 16.4282Z" fill="white"/>
<path d="M170.193 175.679H66.7026C66.3562 175.679 66.0239 175.529 65.7789 175.264C65.5339 174.998 65.3963 174.637 65.3963 174.261V16.4282C65.3825 12.8252 64.0564 9.37423 61.7071 6.82781C59.3578 4.28139 56.1759 2.84609 52.8552 2.8349C52.5087 2.8349 52.1764 2.68556 51.9315 2.41973C51.6865 2.15391 51.5488 1.79338 51.5488 1.41745C51.5488 1.04152 51.6865 0.680984 51.9315 0.41516C52.1764 0.149337 52.5087 0 52.8552 0H155.927C160.057 0.00750472 164.016 1.79197 166.935 4.96202C169.854 8.13208 171.496 12.4289 171.499 16.9102V174.247C171.501 174.434 171.468 174.62 171.403 174.794C171.339 174.968 171.243 175.125 171.121 175.259C171 175.392 170.855 175.497 170.696 175.57C170.536 175.642 170.365 175.679 170.193 175.679ZM68.009 172.844H168.886V16.9243C168.886 13.1938 167.522 9.61586 165.092 6.97664C162.662 4.33742 159.365 2.85283 155.927 2.84907H61.3466C63.3952 4.35287 65.0734 6.37788 66.2347 8.74736C67.3961 11.1168 68.0052 13.7587 68.009 16.4424V172.844Z" fill="#DFEAEF"/>
<path d="M83.3064 95.0542C82.9599 95.0542 82.6276 94.9048 82.3826 94.639C82.1376 94.3732 82 94.0126 82 93.6367V36.0741C82 35.6981 82.1376 35.3376 82.3826 35.0718C82.6276 34.806 82.9599 34.6566 83.3064 34.6566C83.6528 34.6566 83.9851 34.806 84.2301 35.0718C84.4751 35.3376 84.6127 35.6981 84.6127 36.0741V93.6367C84.6127 94.0126 84.4751 94.3732 84.2301 94.639C83.9851 94.9048 83.6528 95.0542 83.3064 95.0542Z" fill="#093F68"/>
<path d="M158.54 95.1818H83.3064C82.9599 95.1818 82.6276 95.0324 82.3826 94.7666C82.1376 94.5008 82 94.1402 82 93.7643C82 93.3884 82.1376 93.0278 82.3826 92.762C82.6276 92.4962 82.9599 92.3469 83.3064 92.3469H158.54C158.886 92.3469 159.219 92.4962 159.464 92.762C159.709 93.0278 159.846 93.3884 159.846 93.7643C159.846 94.1402 159.709 94.5008 159.464 94.7666C159.219 95.0324 158.886 95.1818 158.54 95.1818Z" fill="#093F68"/>
<path d="M161.728 93.9203L159.115 96.1031C159.065 96.1453 159.006 96.1716 158.943 96.179C158.88 96.1865 158.817 96.1749 158.76 96.1454C158.703 96.116 158.655 96.0699 158.621 96.0124C158.586 95.9548 158.568 95.8881 158.566 95.8196V91.4539C158.565 91.3842 158.582 91.3156 158.615 91.256C158.649 91.1964 158.697 91.1482 158.754 91.117C158.812 91.0859 158.876 91.073 158.94 91.08C159.004 91.0869 159.065 91.1133 159.115 91.1562L161.728 93.3391C161.771 93.3718 161.806 93.4152 161.831 93.4658C161.855 93.5164 161.868 93.5726 161.868 93.6297C161.868 93.6867 161.855 93.743 161.831 93.7935C161.806 93.8441 161.771 93.8876 161.728 93.9203Z" fill="#093F68"/>
<path d="M83.5817 34.4157L85.5804 37.2506C85.6192 37.3046 85.6435 37.3692 85.6504 37.4373C85.6573 37.5053 85.6465 37.5741 85.6194 37.6359C85.5923 37.6977 85.5498 37.7501 85.4968 37.7872C85.4437 37.8243 85.3822 37.8446 85.3191 37.8459H81.2955C81.2313 37.8473 81.1681 37.8289 81.1132 37.7929C81.0582 37.7568 81.0138 37.7046 80.9851 37.6423C80.9564 37.58 80.9445 37.5101 80.9509 37.4408C80.9573 37.3715 80.9817 37.3055 81.0212 37.2506L83.033 34.4157C83.0645 34.3689 83.1058 34.3307 83.1535 34.3044C83.2012 34.2782 83.2539 34.2645 83.3073 34.2645C83.3608 34.2645 83.4135 34.2782 83.4612 34.3044C83.5089 34.3307 83.5501 34.3689 83.5817 34.4157Z" fill="#093F68"/>
<path d="M109.369 44.2386H83.3066V51.2124H109.369V44.2386Z" fill="#F56132" fill-opacity="0.5"/>
<path d="M109.368 52.6299H83.3064C82.9599 52.6299 82.6276 52.4806 82.3826 52.2148C82.1376 51.9489 82 51.5884 82 51.2125V44.2386C82 43.8627 82.1376 43.5022 82.3826 43.2363C82.6276 42.9705 82.9599 42.8212 83.3064 42.8212H109.368C109.715 42.8212 110.047 42.9705 110.292 43.2363C110.537 43.5022 110.675 43.8627 110.675 44.2386V51.2125C110.675 51.5884 110.537 51.9489 110.292 52.2148C110.047 52.4806 109.715 52.6299 109.368 52.6299ZM84.6127 49.795H108.062V45.6561H84.6127V49.795Z" fill="#093F68"/>
<path d="M110.924 52.7716C113.493 52.7716 115.575 50.5124 115.575 47.7255C115.575 44.9386 113.493 42.6794 110.924 42.6794C108.356 42.6794 106.273 44.9386 106.273 47.7255C106.273 50.5124 108.356 52.7716 110.924 52.7716Z" fill="#FAB099"/>
<path d="M110.924 54.175C109.745 54.175 108.593 53.7955 107.613 53.0846C106.633 52.3738 105.869 51.3635 105.419 50.1816C104.969 48.9997 104.851 47.6994 105.082 46.4452C105.313 45.191 105.882 44.0393 106.716 43.1359C107.551 42.2325 108.613 41.6181 109.77 41.3703C110.926 41.1225 112.124 41.2525 113.213 41.7439C114.301 42.2353 115.23 43.0659 115.883 44.1307C116.536 45.1955 116.883 46.4466 116.881 47.7256C116.881 48.5737 116.727 49.4135 116.427 50.1969C116.128 50.9803 115.689 51.6919 115.135 52.291C114.582 52.8901 113.925 53.3648 113.202 53.6881C112.48 54.0114 111.705 54.1768 110.924 54.175ZM110.924 44.0969C110.262 44.0969 109.616 44.3097 109.066 44.7084C108.516 45.1071 108.087 45.6739 107.834 46.3369C107.581 47 107.515 47.7296 107.644 48.4335C107.773 49.1374 108.091 49.7839 108.559 50.2914C109.027 50.7989 109.623 51.1445 110.271 51.2845C110.92 51.4245 111.593 51.3527 112.204 51.078C112.815 50.8034 113.337 50.3383 113.704 49.7415C114.072 49.1448 114.268 48.4432 114.268 47.7256C114.268 46.7632 113.916 45.8402 113.289 45.1597C112.661 44.4792 111.811 44.0969 110.924 44.0969Z" fill="#093F68"/>
<path d="M123.791 59.8022H83.3066V66.7761H123.791V59.8022Z" fill="#FFBC0E" fill-opacity="0.5"/>
<path d="M123.776 68.1794H83.279C82.9326 68.1794 82.6003 68.0301 82.3553 67.7643C82.1103 67.4984 81.9727 67.1379 81.9727 66.762V59.8023C81.9727 59.4263 82.1103 59.0658 82.3553 58.8C82.6003 58.5342 82.9326 58.3848 83.279 58.3848H123.776C124.123 58.3848 124.455 58.5342 124.7 58.8C124.945 59.0658 125.083 59.4263 125.083 59.8023V66.762C125.083 67.1379 124.945 67.4984 124.7 67.7643C124.455 68.0301 124.123 68.1794 123.776 68.1794ZM84.5854 65.3445H122.47V61.2197H84.5854V65.3445Z" fill="#093F68"/>
<path d="M125.346 68.3353C127.914 68.3353 129.997 66.0761 129.997 63.2892C129.997 60.5023 127.914 58.243 125.346 58.243C122.777 58.243 120.695 60.5023 120.695 63.2892C120.695 66.0761 122.777 68.3353 125.346 68.3353Z" fill="#FFDE86"/>
<path d="M125.347 69.7385C124.166 69.7498 123.009 69.3799 122.022 68.6759C121.035 67.9719 120.264 66.9656 119.805 65.7847C119.347 64.6039 119.222 63.3018 119.447 62.0439C119.672 60.786 120.236 59.629 121.069 58.7199C121.901 57.8109 122.964 57.1907 124.121 56.9383C125.279 56.6859 126.48 56.8125 127.571 57.3022C128.663 57.7919 129.595 58.6225 130.251 59.6885C130.906 60.7545 131.254 62.0078 131.252 63.2891C131.252 64.9923 130.631 66.6263 129.525 67.8346C128.419 69.0429 126.917 69.7273 125.347 69.7385ZM125.347 59.6605C124.684 59.6492 124.032 59.8524 123.475 60.2443C122.918 60.6361 122.482 61.1988 122.22 61.8608C121.959 62.5228 121.886 63.2541 122.009 63.9617C122.132 64.6693 122.446 65.3211 122.912 65.8343C123.377 66.3474 123.973 66.6987 124.623 66.8434C125.273 66.9881 125.948 66.9196 126.562 66.6467C127.176 66.3738 127.702 65.9088 128.072 65.3109C128.442 64.713 128.639 64.0092 128.639 63.2891C128.639 62.3365 128.294 61.422 127.678 60.7431C127.062 60.0642 126.225 59.6754 125.347 59.6605Z" fill="#093F68"/>
<path d="M136.162 75.3658H83.3066V82.3397H136.162V75.3658Z" fill="#9FE5BB"/>
<path d="M136.162 83.743H83.3064C82.9599 83.743 82.6276 83.5936 82.3826 83.3278C82.1376 83.062 82 82.7014 82 82.3255V75.3658C82 74.9899 82.1376 74.6293 82.3826 74.3635C82.6276 74.0977 82.9599 73.9484 83.3064 73.9484H136.162C136.508 73.9484 136.841 74.0977 137.086 74.3635C137.331 74.6293 137.468 74.9899 137.468 75.3658V82.3255C137.468 82.7014 137.331 83.062 137.086 83.3278C136.841 83.5936 136.508 83.743 136.162 83.743ZM84.6127 80.9081H134.855V76.7833H84.6127V80.9081Z" fill="#093F68"/>
<path d="M137.729 83.8847C140.297 83.8847 142.379 81.6255 142.379 78.8386C142.379 76.0517 140.297 73.7925 137.729 73.7925C135.16 73.7925 133.078 76.0517 133.078 78.8386C133.078 81.6255 135.16 83.8847 137.729 83.8847Z" fill="#9FE5BB"/>
<path d="M137.783 85.3021C136.604 85.3049 135.451 84.9282 134.469 84.2197C133.488 83.5112 132.723 82.5027 132.27 81.3219C131.817 80.1411 131.697 78.841 131.925 77.5863C132.154 76.3316 132.72 75.1785 133.553 74.2732C134.385 73.3678 135.447 72.7508 136.603 72.5002C137.758 72.2497 138.957 72.3769 140.046 72.8657C141.135 73.3544 142.067 74.1829 142.722 75.2461C143.377 76.3094 143.727 77.5596 143.727 78.8386C143.727 80.5504 143.101 82.1922 141.986 83.404C140.872 84.6157 139.36 85.2984 137.783 85.3021ZM137.783 75.2241C137.12 75.2213 136.472 75.4321 135.92 75.8297C135.368 76.2273 134.937 76.7939 134.682 77.4575C134.428 78.1212 134.36 78.8519 134.489 79.5572C134.618 80.2624 134.936 80.9102 135.405 81.4186C135.873 81.9269 136.47 82.2728 137.12 82.4123C137.77 82.5519 138.444 82.4789 139.055 82.2024C139.667 81.926 140.189 81.4588 140.556 80.8599C140.922 80.261 141.116 79.5574 141.114 78.8386C141.11 77.8811 140.758 76.9639 140.134 76.2869C139.51 75.6098 138.665 75.2278 137.783 75.2241Z" fill="#093F68"/>
<path d="M154.763 53.0977H143.228C142.882 53.0977 142.549 52.9483 142.304 52.6825C142.06 52.4167 141.922 52.0561 141.922 51.6802C141.922 51.3043 142.06 50.9437 142.304 50.6779C142.549 50.4121 142.882 50.2628 143.228 50.2628H154.763C155.11 50.2628 155.442 50.4121 155.687 50.6779C155.932 50.9437 156.07 51.3043 156.07 51.6802C156.07 52.0561 155.932 52.4167 155.687 52.6825C155.442 52.9483 155.11 53.0977 154.763 53.0977Z" fill="#A5D8EF"/>
<path d="M154.765 59.4053H149.984C149.638 59.4053 149.305 59.256 149.06 58.9902C148.815 58.7244 148.678 58.3638 148.678 57.9879C148.678 57.612 148.815 57.2514 149.06 56.9856C149.305 56.7198 149.638 56.5704 149.984 56.5704H154.765C155.112 56.5704 155.444 56.7198 155.689 56.9856C155.934 57.2514 156.072 57.612 156.072 57.9879C156.072 58.3638 155.934 58.7244 155.689 58.9902C155.444 59.256 155.112 59.4053 154.765 59.4053Z" fill="#A5D8EF"/>
<path d="M147.895 59.4053H140.488C140.142 59.4053 139.809 59.256 139.564 58.9902C139.319 58.7244 139.182 58.3638 139.182 57.9879C139.182 57.612 139.319 57.2514 139.564 56.9856C139.809 56.7198 140.142 56.5704 140.488 56.5704H147.895C148.242 56.5704 148.574 56.7198 148.819 56.9856C149.064 57.2514 149.201 57.612 149.201 57.9879C149.201 58.3638 149.064 58.7244 148.819 58.9902C148.574 59.256 148.242 59.4053 147.895 59.4053Z" fill="#A5D8EF"/>
<path d="M154.764 65.6989H140.394C140.048 65.6989 139.716 65.5495 139.471 65.2837C139.226 65.0179 139.088 64.6573 139.088 64.2814C139.088 63.9055 139.226 63.5449 139.471 63.2791C139.716 63.0133 140.048 62.864 140.394 62.864H154.764C155.111 62.864 155.443 63.0133 155.688 63.2791C155.933 63.5449 156.071 63.9055 156.071 64.2814C156.071 64.6573 155.933 65.0179 155.688 65.2837C155.443 65.5495 155.111 65.6989 154.764 65.6989Z" fill="#A5D8EF"/>
<path d="M138.567 21.9705H98.7361C98.3896 21.9705 98.0573 21.8211 97.8123 21.5553C97.5673 21.2895 97.4297 20.9289 97.4297 20.553C97.4297 20.1771 97.5673 19.8165 97.8123 19.5507C98.0573 19.2849 98.3896 19.1356 98.7361 19.1356H138.567C138.914 19.1356 139.246 19.2849 139.491 19.5507C139.736 19.8165 139.873 20.1771 139.873 20.553C139.873 20.9289 139.736 21.2895 139.491 21.5553C139.246 21.8211 138.914 21.9705 138.567 21.9705Z" fill="#A5D8EF"/>
<path d="M158.54 162.312H83.3064C82.9599 162.312 82.6276 162.163 82.3826 161.897C82.1376 161.631 82 161.271 82 160.895V111.284C82 110.908 82.1376 110.547 82.3826 110.282C82.6276 110.016 82.9599 109.866 83.3064 109.866H158.54C158.886 109.866 159.219 110.016 159.464 110.282C159.709 110.547 159.846 110.908 159.846 111.284V160.895C159.846 161.271 159.709 161.631 159.464 161.897C159.219 162.163 158.886 162.312 158.54 162.312ZM84.6127 159.477H157.233V112.701H84.6127V159.477Z" fill="#093F68"/>
<path d="M94.5935 162.312C94.247 162.312 93.9147 162.163 93.6697 161.897C93.4247 161.631 93.2871 161.271 93.2871 160.895V111.284C93.2871 110.908 93.4247 110.547 93.6697 110.282C93.9147 110.016 94.247 109.866 94.5935 109.866C94.9399 109.866 95.2722 110.016 95.5172 110.282C95.7622 110.547 95.8998 110.908 95.8998 111.284V160.895C95.8998 161.271 95.7622 161.631 95.5172 161.897C95.2722 162.163 94.9399 162.312 94.5935 162.312Z" fill="#093F68"/>
<path d="M158.54 124.835H83.3064C82.9599 124.835 82.6276 124.686 82.3826 124.42C82.1376 124.154 82 123.793 82 123.417C82 123.042 82.1376 122.681 82.3826 122.415C82.6276 122.149 82.9599 122 83.3064 122H158.54C158.886 122 159.219 122.149 159.464 122.415C159.709 122.681 159.846 123.042 159.846 123.417C159.846 123.793 159.709 124.154 159.464 124.42C159.219 124.686 158.886 124.835 158.54 124.835Z" fill="#093F68"/>
<path d="M174.947 144.396L166.508 153.552L180.199 168.393L171.224 178.131L157.547 163.276L149.094 172.447L143.529 138.343L174.947 144.396Z" fill="#C3FAE4"/>
<path d="M171.224 179.548C170.879 179.543 170.551 179.39 170.309 179.123L157.546 165.289L150.022 173.439C149.853 173.622 149.641 173.751 149.41 173.812C149.178 173.874 148.936 173.865 148.708 173.788C148.481 173.71 148.278 173.567 148.12 173.373C147.962 173.179 147.856 172.942 147.814 172.688L142.249 138.669C142.212 138.444 142.226 138.213 142.289 137.995C142.352 137.778 142.462 137.58 142.611 137.418C142.76 137.257 142.942 137.137 143.143 137.068C143.344 137 143.557 136.985 143.764 137.025L175.117 143.063C175.354 143.108 175.575 143.222 175.756 143.394C175.937 143.566 176.071 143.789 176.142 144.038C176.214 144.288 176.221 144.553 176.162 144.807C176.103 145.06 175.981 145.29 175.809 145.473L168.285 153.623L181.048 167.472C181.291 167.737 181.428 168.097 181.428 168.471C181.428 168.846 181.291 169.205 181.048 169.47L172.086 179.194C171.848 179.422 171.542 179.548 171.224 179.548ZM157.546 161.859C157.889 161.86 158.217 162.008 158.461 162.27L171.224 176.118L178.344 168.393L165.58 154.559C165.458 154.427 165.361 154.27 165.295 154.098C165.228 153.925 165.194 153.74 165.194 153.552C165.194 153.365 165.228 153.18 165.295 153.007C165.361 152.835 165.458 152.678 165.58 152.546L172.256 145.317L145.149 140.115L149.943 169.527L156.619 162.284C156.74 162.15 156.884 162.043 157.043 161.97C157.202 161.897 157.373 161.859 157.546 161.859Z" fill="#093F68"/>
<path d="M122.327 151.908V150.165C121.739 149.995 121.178 149.867 120.629 149.669C119.564 149.304 118.643 148.56 118.016 147.557C117.503 146.676 117.244 145.65 117.272 144.608H120.394C120.412 145.196 120.609 145.761 120.954 146.215C121.299 146.669 121.772 146.986 122.301 147.117V142.525C121.674 142.326 120.995 142.142 120.433 141.929C119.752 141.725 119.128 141.34 118.617 140.81C118.08 140.237 117.727 139.491 117.611 138.683C117.421 137.7 117.489 136.679 117.807 135.735C118.035 135.054 118.4 134.437 118.874 133.927C119.348 133.417 119.921 133.028 120.551 132.787C121.066 132.61 121.589 132.464 122.118 132.347H122.314V130.065H125.227V132.248C125.227 132.418 125.227 132.461 125.41 132.489C126.409 132.713 127.343 133.199 128.127 133.907C128.96 134.644 129.514 135.689 129.682 136.841C129.682 137.153 129.747 137.479 129.787 137.805H126.612C126.604 137.335 126.47 136.879 126.227 136.491C125.983 136.103 125.64 135.801 125.24 135.622V139.874L125.58 139.973C126.44 140.149 127.277 140.434 128.075 140.824C128.672 141.105 129.188 141.557 129.567 142.131C129.947 142.705 130.176 143.38 130.231 144.084C130.408 145.284 130.187 146.514 129.605 147.553C129.023 148.591 128.12 149.372 127.056 149.754C126.468 149.98 125.854 150.122 125.227 150.306V151.993L122.327 151.908ZM125.253 143.191V147.202C125.732 147.134 126.185 146.923 126.56 146.593C126.767 146.431 126.937 146.219 127.053 145.972C127.17 145.726 127.231 145.452 127.231 145.175C127.231 144.898 127.17 144.625 127.053 144.379C126.937 144.132 126.767 143.919 126.56 143.758C126.134 143.544 125.698 143.354 125.253 143.191ZM122.314 139.109V135.253C121.931 135.428 121.56 135.631 121.204 135.863C120.984 136.019 120.805 136.234 120.684 136.487C120.563 136.74 120.504 137.023 120.514 137.308C120.523 137.593 120.6 137.871 120.736 138.114C120.873 138.357 121.066 138.558 121.295 138.698C121.628 138.854 121.968 138.991 122.314 139.109Z" fill="#093F68"/>
<defs>
<linearGradient id="paint0_linear_863_1749" x1="114.274" y1="50.5604" x2="114.274" y2="186.678" gradientUnits="userSpaceOnUse">
<stop stop-color="#6CD7D4"/>
<stop offset="1" stop-color="#C1F8E3" stop-opacity="0.36"/>
</linearGradient>
<linearGradient id="paint1_linear_863_1749" x1="114.267" y1="186.673" x2="114.267" y2="261.534" gradientUnits="userSpaceOnUse">
<stop stop-color="#6CD7D4"/>
<stop offset="1" stop-color="#6CD7D4" stop-opacity="0"/>
</linearGradient>
<linearGradient id="paint2_linear_863_1749" x1="114.266" y1="62.9773" x2="114.266" y2="174.261" gradientUnits="userSpaceOnUse">
<stop stop-color="#697B90"/>
<stop offset="1" stop-color="#3F4466"/>
</linearGradient>
<linearGradient id="paint3_linear_863_1749" x1="55.0826" y1="1.43158" x2="55.0826" y2="39.6886" gradientUnits="userSpaceOnUse">
<stop stop-color="#6CD7D4"/>
<stop offset="1" stop-color="#C1F8E3"/>
</linearGradient>
</defs>
</svg>
