<svg width="226" height="218" viewBox="0 0 226 218" fill="none" xmlns="http://www.w3.org/2000/svg">
<path d="M224.306 38.7569V172.352C224.29 173.908 223.968 175.445 223.358 176.876C222.748 178.307 221.861 179.603 220.75 180.69C219.638 181.777 218.322 182.633 216.879 183.209C215.436 183.786 213.893 184.071 212.34 184.048H14.165C12.5392 184.053 10.9291 183.73 9.43073 183.098C7.93236 182.466 6.57642 181.539 5.44376 180.371C3.35853 178.245 2.19293 175.384 2.19924 172.404V38.7569C2.21447 37.2012 2.53645 35.6637 3.1467 34.2329C3.75694 32.8021 4.64344 31.5061 5.75528 30.4194C6.86711 29.3326 8.18239 28.4764 9.62558 27.9001C11.0688 27.3237 12.6114 27.0385 14.165 27.0608H212.34C213.893 27.0385 215.436 27.3237 216.879 27.9001C218.322 28.4764 219.638 29.3326 220.75 30.4194C221.861 31.5061 222.748 32.8021 223.358 34.2329C223.968 35.6637 224.29 37.2012 224.306 38.7569Z" fill="url(#paint0_linear_861_1592)"/>
<path d="M212.339 185.296H14.164C12.3647 185.299 10.5832 184.94 8.92468 184.242C7.26621 183.543 5.76447 182.518 4.50829 181.228C2.19397 178.855 0.898999 175.669 0.900392 172.352V38.757C0.917335 37.0311 1.27406 35.3254 1.95013 33.7377C2.6262 32.15 3.60834 30.7115 4.84034 29.5044C6.07235 28.2972 7.53 27.3453 9.12988 26.703C10.7298 26.0607 12.4404 25.7407 14.164 25.7613H212.339C214.062 25.7407 215.773 26.0607 217.373 26.703C218.973 27.3453 220.43 28.2972 221.662 29.5044C222.894 30.7115 223.877 32.15 224.553 33.7377C225.229 35.3254 225.585 37.0311 225.602 38.757V172.352C225.555 175.829 224.131 179.145 221.644 181.571C219.158 183.998 215.811 185.338 212.339 185.296ZM14.164 28.3604C12.7817 28.3415 11.4093 28.5955 10.1251 29.1077C8.84092 29.62 7.67006 30.3806 6.67942 31.346C5.68879 32.3114 4.89778 33.4628 4.35156 34.7344C3.80534 36.006 3.51462 37.3729 3.496 38.757V172.352C3.49942 174.995 4.53322 177.532 6.37713 179.422C7.3914 180.46 8.60282 181.285 9.94011 181.847C11.2774 182.41 12.7135 182.699 14.164 182.697H212.339C213.722 182.717 215.095 182.465 216.38 181.953C217.665 181.441 218.836 180.681 219.827 179.715C220.818 178.749 221.609 177.597 222.155 176.325C222.7 175.053 222.99 173.685 223.007 172.3V38.757C222.988 37.3729 222.697 36.006 222.151 34.7344C221.605 33.4628 220.814 32.3114 219.823 31.346C218.833 30.3806 217.662 29.62 216.378 29.1077C215.093 28.5955 213.721 28.3415 212.339 28.3604H14.164Z" fill="#DFEAEF"/>
<path d="M154.287 215.797H72.2012L80.8835 184.009H145.605L154.287 215.797Z" fill="url(#paint1_linear_861_1592)"/>
<path d="M154.286 217.096H72.2001C71.9971 217.103 71.7954 217.063 71.611 216.977C71.4267 216.892 71.2649 216.765 71.1387 216.605C71.0124 216.446 70.9253 216.259 70.8842 216.06C70.8432 215.861 70.8493 215.655 70.9023 215.459L79.5846 183.659C79.6631 183.377 79.8338 183.131 80.0692 182.959C80.3047 182.787 80.5911 182.699 80.8824 182.71H145.604C145.895 182.699 146.182 182.787 146.417 182.959C146.653 183.131 146.823 183.377 146.902 183.659L155.545 215.498C155.598 215.694 155.604 215.9 155.563 216.099C155.522 216.298 155.435 216.485 155.309 216.644C155.182 216.804 155.021 216.931 154.836 217.016C154.652 217.102 154.45 217.142 154.247 217.135L154.286 217.096ZM73.9002 214.497H152.586L144.618 185.309H81.8687L73.9002 214.497Z" fill="#DFEAEF"/>
<path d="M113.252 171.871C116.04 171.871 118.3 169.608 118.3 166.816C118.3 164.024 116.04 161.761 113.252 161.761C110.463 161.761 108.203 164.024 108.203 166.816C108.203 169.608 110.463 171.871 113.252 171.871Z" fill="#093F68"/>
<path d="M113.251 173.171C111.995 173.171 110.768 172.798 109.725 172.1C108.681 171.402 107.868 170.409 107.387 169.248C106.907 168.087 106.781 166.809 107.026 165.576C107.271 164.344 107.876 163.211 108.763 162.323C109.651 161.434 110.781 160.829 112.012 160.583C113.244 160.338 114.52 160.464 115.679 160.945C116.839 161.426 117.83 162.241 118.527 163.286C119.225 164.331 119.597 165.559 119.597 166.816C119.593 168.501 118.924 170.115 117.734 171.306C116.545 172.497 114.933 173.168 113.251 173.171ZM113.251 163.06C112.509 163.06 111.784 163.281 111.167 163.693C110.55 164.106 110.069 164.693 109.785 165.379C109.502 166.065 109.427 166.82 109.572 167.549C109.717 168.277 110.074 168.947 110.598 169.472C111.123 169.997 111.791 170.355 112.519 170.5C113.246 170.645 114.001 170.57 114.686 170.286C115.371 170.002 115.957 169.52 116.369 168.903C116.781 168.285 117.001 167.559 117.001 166.816C117.001 165.82 116.606 164.865 115.903 164.16C115.199 163.456 114.245 163.06 113.251 163.06Z" fill="#DFEAEF"/>
<path d="M224.306 38.1461V151.598H2.19922V38.1461C2.21444 36.5904 2.53642 35.0529 3.14667 33.6221C3.75692 32.1913 4.64341 30.8953 5.75525 29.8085C6.86709 28.7218 8.18237 27.8656 9.62556 27.2893C11.0687 26.7129 12.6114 26.4277 14.165 26.45H212.34C213.893 26.4277 215.436 26.7129 216.879 27.2893C218.322 27.8656 219.638 28.7218 220.75 29.8085C221.861 30.8953 222.748 32.1913 223.358 33.6221C223.968 35.0529 224.29 36.5904 224.306 38.1461Z" fill="#F2F2F2" fill-opacity="0.13"/>
<path d="M224.305 152.898H2.1982C1.854 152.898 1.52389 152.761 1.28051 152.517C1.03712 152.273 0.900391 151.943 0.900391 151.598V38.1462C0.917334 36.4202 1.27405 34.7146 1.95012 33.1269C2.6262 31.5392 3.60834 30.1007 4.84034 28.8935C6.07234 27.6864 7.53 26.7345 9.12988 26.0922C10.7298 25.4499 12.4404 25.1299 14.164 25.1505H212.339C214.062 25.1299 215.773 25.4499 217.373 26.0922C218.973 26.7345 220.43 27.6864 221.662 28.8935C222.894 30.1007 223.877 31.5392 224.553 33.1269C225.229 34.7146 225.585 36.4202 225.602 38.1462V151.598C225.602 151.769 225.569 151.938 225.504 152.096C225.438 152.253 225.343 152.397 225.222 152.517C225.102 152.638 224.959 152.734 224.801 152.799C224.644 152.864 224.475 152.898 224.305 152.898ZM3.496 150.299H223.007V38.1462C222.99 36.7616 222.7 35.3939 222.155 34.1215C221.609 32.8492 220.818 31.6971 219.827 30.7313C218.836 29.7656 217.665 29.0051 216.38 28.4934C215.095 27.9818 213.722 27.729 212.339 27.7496H14.164C12.7813 27.729 11.4081 27.9818 10.1232 28.4934C8.83818 29.0051 7.66665 29.7656 6.67567 30.7313C5.68469 31.6971 4.89372 32.8492 4.3481 34.1215C3.80248 35.3939 3.51292 36.7616 3.496 38.1462V150.299Z" fill="#DFEAEF"/>
<path d="M184.631 2.07019H41.7943C38.9742 2.07019 36.2693 3.19114 34.2739 5.1868C32.2785 7.18246 31.1558 9.88963 31.1523 12.7136V114.236C31.1523 117.062 32.2735 119.772 34.2693 121.771C36.2651 123.769 38.9719 124.892 41.7943 124.892H51.6577V142.852L65.8167 124.892H184.631C187.453 124.892 190.16 123.769 192.156 121.771C194.152 119.772 195.273 117.062 195.273 114.236V12.7656C195.278 11.3629 195.006 9.97301 194.474 8.67561C193.941 7.3782 193.158 6.19884 192.17 5.20516C191.181 4.21149 190.006 3.42306 188.712 2.88509C187.419 2.34711 186.032 2.07018 184.631 2.07019Z" fill="white"/>
<path d="M51.6586 144.152C51.5125 144.15 51.3677 144.124 51.2303 144.074C50.9771 143.985 50.7575 143.82 50.6018 143.601C50.446 143.383 50.3618 143.121 50.3608 142.852V126.192H41.7953C38.6297 126.188 35.5948 124.928 33.3564 122.686C31.1179 120.445 29.8589 117.406 29.8555 114.236V12.7656C29.8623 9.59802 31.1229 6.5623 33.3609 4.32366C35.599 2.08503 38.6319 0.826064 41.7953 0.822632H184.632C187.796 0.82263 190.831 2.0805 193.07 4.31988C195.309 6.55925 196.568 9.59697 196.572 12.7656V114.288C196.568 117.458 195.309 120.497 193.071 122.738C190.832 124.98 187.797 126.24 184.632 126.244H66.4536L52.6839 143.71C52.5566 143.855 52.3985 143.97 52.2211 144.047C52.0437 144.123 51.8515 144.159 51.6586 144.152ZM41.7953 3.36978C39.3203 3.37321 36.9475 4.35834 35.1963 6.10954C33.445 7.86075 32.4579 10.2354 32.4511 12.7137V114.236C32.4545 116.716 33.4401 119.094 35.1917 120.848C36.9433 122.602 39.3181 123.589 41.7953 123.593H51.6586C52.0028 123.593 52.3329 123.73 52.5763 123.973C52.8197 124.217 52.9564 124.548 52.9564 124.892V139.109L64.8054 124.086C64.9262 123.933 65.08 123.809 65.2552 123.724C65.4305 123.638 65.6227 123.594 65.8176 123.593H184.632C187.109 123.589 189.484 122.602 191.235 120.848C192.987 119.094 193.973 116.716 193.976 114.236V12.7656C193.969 10.2874 192.982 7.91273 191.231 6.16153C189.479 4.41033 187.107 3.42519 184.632 3.42176L41.7953 3.36978Z" fill="white"/>
<path d="M156.534 111.171L164.418 102.826L149.192 88.4023L141.308 96.7479L156.534 111.171Z" fill="url(#paint2_linear_861_1592)"/>
<path d="M156.534 112.455C156.201 112.458 155.881 112.332 155.638 112.104L140.415 97.6793C140.291 97.5615 140.192 97.4206 140.123 97.2645C140.054 97.1084 140.017 96.9402 140.013 96.7696C140.006 96.5982 140.034 96.4273 140.094 96.2667C140.154 96.1061 140.246 95.959 140.363 95.8339L148.293 87.4907C148.536 87.2486 148.865 87.1128 149.208 87.1128C149.55 87.1128 149.879 87.2486 150.122 87.4907L165.346 101.916C165.467 102.037 165.564 102.18 165.63 102.339C165.696 102.497 165.73 102.667 165.73 102.839C165.73 103.01 165.696 103.18 165.63 103.338C165.564 103.497 165.467 103.64 165.346 103.761L157.468 112.104C157.343 112.222 157.196 112.313 157.036 112.373C156.875 112.434 156.705 112.462 156.534 112.455ZM143.101 96.6786L156.443 109.323L162.542 102.826L149.201 90.1808L143.101 96.6786Z" fill="#093F68"/>
<path d="M142.509 102.132L154.611 89.3212L139.385 74.898L127.282 87.7091L142.509 102.132Z" fill="url(#paint3_linear_861_1592)"/>
<path d="M142.503 103.397C142.175 103.396 141.86 103.271 141.62 103.046L126.397 88.6213C126.155 88.3778 126.02 88.0484 126.02 87.7051C126.02 87.3617 126.155 87.0324 126.397 86.7889L138.492 73.9752C138.61 73.8516 138.751 73.7524 138.907 73.6832C139.063 73.6141 139.231 73.5764 139.401 73.5723C139.572 73.5662 139.743 73.594 139.903 73.6542C140.064 73.7144 140.21 73.8058 140.335 73.9232L155.559 88.3484C155.8 88.5919 155.936 88.9212 155.936 89.2646C155.936 89.6079 155.8 89.9373 155.559 90.1808L143.45 102.994C143.333 103.118 143.192 103.217 143.036 103.286C142.88 103.356 142.712 103.393 142.542 103.397H142.503ZM129.122 87.6336L142.451 100.265L152.833 89.336L139.492 76.7043L129.122 87.6336Z" fill="#093F68"/>
<path d="M189.752 141.696L196.7 134.342C198.123 132.835 198.057 130.458 196.553 129.032L167.128 101.159C165.623 99.7337 163.249 99.7997 161.826 101.307L154.878 108.661C153.455 110.168 153.52 112.545 155.025 113.97L184.45 141.843C185.955 143.269 188.329 143.203 189.752 141.696Z" fill="url(#paint4_linear_861_1592)"/>
<path d="M187.007 144.152C185.72 144.148 184.481 143.656 183.542 142.774L154.121 114.885C153.639 114.429 153.252 113.882 152.982 113.276C152.711 112.669 152.563 112.016 152.545 111.352C152.527 110.688 152.639 110.028 152.876 109.407C153.113 108.787 153.47 108.22 153.926 107.738L160.869 100.395C161.324 99.9105 161.87 99.5207 162.476 99.2486C163.082 98.9764 163.736 98.8273 164.399 98.8099C165.736 98.7778 167.031 99.2725 168.007 100.187L197.429 128.076C197.911 128.531 198.298 129.076 198.57 129.68C198.841 130.285 198.991 130.938 199.01 131.6C199.029 132.263 198.918 132.923 198.682 133.542C198.446 134.162 198.091 134.729 197.636 135.211L190.68 142.566C190.226 143.052 189.681 143.443 189.074 143.715C188.468 143.987 187.814 144.136 187.15 144.152H187.007ZM164.542 101.396H164.464C164.142 101.403 163.825 101.474 163.53 101.606C163.236 101.738 162.971 101.927 162.751 102.163L155.808 109.518C155.363 109.992 155.123 110.624 155.143 111.275C155.162 111.925 155.439 112.542 155.912 112.988L185.333 140.864C185.566 141.087 185.84 141.262 186.141 141.378C186.442 141.494 186.763 141.549 187.085 141.54C187.735 141.52 188.35 141.245 188.798 140.773L195.741 133.417C195.963 133.184 196.137 132.908 196.253 132.607C196.369 132.306 196.424 131.985 196.416 131.663C196.411 131.34 196.34 131.022 196.209 130.727C196.077 130.432 195.887 130.167 195.651 129.947L166.229 102.072C165.773 101.642 165.169 101.405 164.542 101.409V101.396Z" fill="#093F68"/>
<path d="M141.336 31.7913C135.389 26.1553 127.905 22.4121 119.833 21.035C111.761 19.658 103.462 20.709 95.9861 24.0551C88.5103 27.4013 82.1934 32.8922 77.8342 39.8335C73.4751 46.7748 71.2695 54.8547 71.4964 63.0513C71.7233 71.2478 74.3725 79.1929 79.1091 85.8817C83.8456 92.5705 90.4566 97.7026 98.106 100.629C105.755 103.555 114.1 104.144 122.083 102.321C130.067 100.499 137.332 96.346 142.959 90.3887C146.695 86.4349 149.617 81.7828 151.558 76.6979C153.499 71.613 154.421 66.195 154.27 60.7535C154.119 55.3119 152.9 49.9534 150.68 44.984C148.461 40.0146 145.286 35.5317 141.336 31.7913Z" fill="url(#paint5_linear_861_1592)" stroke="#093F68" stroke-width="2.03" stroke-linecap="round" stroke-linejoin="round"/>
<path d="M141.35 61.9022C141.359 68.5952 139.005 75.0761 134.705 80.2001C134.212 80.8035 133.688 81.3804 133.135 81.9285C130.488 84.6094 127.336 86.7378 123.862 88.1905C120.388 89.6431 116.66 90.391 112.895 90.391C109.131 90.391 105.403 89.6431 101.929 88.1905C98.4548 86.7378 95.303 84.6094 92.6561 81.9285C92.1027 81.3804 91.5785 80.8035 91.0858 80.2001C86.79 75.0706 84.4355 68.5901 84.4355 61.8957C84.4355 55.2013 86.79 48.7208 91.0858 43.5913C91.5785 42.9879 92.1027 42.411 92.6561 41.8629C95.3008 39.1828 98.4504 37.0549 101.922 35.6026C105.394 34.1504 109.12 33.4026 112.882 33.4026C116.645 33.4026 120.37 34.1504 123.842 35.6026C127.314 37.0549 130.464 39.1828 133.109 41.8629C133.662 42.411 134.186 42.9879 134.679 43.5913C138.992 48.7145 141.356 55.2012 141.35 61.9022Z" fill="white"/>
<path d="M112.901 91.6883C108.962 91.7027 105.061 90.9284 101.426 89.4108C97.7904 87.8932 94.4951 85.6629 91.7334 82.8512C91.1539 82.2728 90.6038 81.6655 90.0851 81.0318C85.5918 75.6679 83.1289 68.8905 83.1289 61.8892C83.1289 54.888 85.5918 48.1106 90.0851 42.7466C90.5913 42.1358 91.1494 41.5121 91.7204 40.9402C94.4857 38.1383 97.7789 35.9138 101.409 34.3955C105.039 32.8773 108.934 32.0955 112.868 32.0955C116.802 32.0955 120.697 32.8773 124.327 34.3955C127.957 35.9138 131.251 38.1383 134.016 40.9402C134.587 41.5121 135.145 42.1228 135.664 42.7466C140.157 48.1106 142.62 54.888 142.62 61.8892C142.62 68.8905 140.157 75.6679 135.664 81.0318C135.15 81.6615 134.604 82.2644 134.029 82.8382C131.273 85.6481 127.985 87.8785 124.357 89.3982C120.728 90.918 116.833 91.6966 112.901 91.6883ZM112.901 34.7023C109.307 34.6891 105.747 35.3964 102.43 36.7824C99.1135 38.1684 96.1075 40.2052 93.5892 42.7726C93.0688 43.2932 92.5751 43.8397 92.1097 44.4101C88.0024 49.3059 85.7507 55.4952 85.7507 61.8892C85.7507 68.2833 88.0024 74.4726 92.1097 79.3684C92.5764 79.9457 93.0747 80.4967 93.6022 81.0189C96.1294 83.5764 99.1379 85.6067 102.454 86.9924C105.77 88.378 109.327 89.0915 112.92 89.0915C116.513 89.0915 120.07 88.378 123.386 86.9924C126.702 85.6067 129.711 83.5764 132.238 81.0189C132.757 80.499 133.25 79.9532 133.717 79.3814C137.825 74.4856 140.076 68.2963 140.076 61.9022C140.076 55.5081 137.825 49.3188 133.717 44.4231C133.25 43.8513 132.744 43.3055 132.238 42.7856C129.718 40.2127 126.708 38.1717 123.387 36.7833C120.065 35.3949 116.5 34.6873 112.901 34.7023Z" fill="#093F68"/>
<path d="M112.901 91.6883C108.963 91.7027 105.061 90.9284 101.426 89.4107C97.7911 87.8931 94.4958 85.6629 91.7341 82.8512C91.1546 82.2727 90.6045 81.6655 90.0858 81.0318C89.976 80.8985 89.8939 80.7447 89.8441 80.5792C89.7944 80.4138 89.7781 80.24 89.7962 80.0682C89.8144 79.8964 89.8665 79.7299 89.9497 79.5785C90.0328 79.4271 90.1453 79.2938 90.2805 79.1864C90.8126 78.7706 91.3447 78.3547 91.9158 77.8869C98.1878 73.8977 105.465 71.7792 112.895 71.7792C120.325 71.7792 127.602 73.8977 133.874 77.8869C134.445 78.2897 134.977 78.7056 135.509 79.1864C135.644 79.2938 135.757 79.4271 135.84 79.5785C135.923 79.7299 135.975 79.8964 135.993 80.0682C136.011 80.24 135.995 80.4138 135.945 80.5792C135.896 80.7447 135.814 80.8985 135.704 81.0318C135.185 81.6655 134.635 82.2727 134.055 82.8512C131.296 85.6619 128.003 87.8916 124.37 89.4092C120.737 90.9269 116.838 91.7017 112.901 91.6883ZM92.98 80.3431L93.5769 80.9668C96.1041 83.5244 99.1127 85.5547 102.429 86.9403C105.744 88.326 109.302 89.0395 112.895 89.0395C116.488 89.0395 120.045 88.326 123.361 86.9403C126.677 85.5547 129.685 83.5244 132.213 80.9668L132.81 80.3431L132.368 80.0182C126.537 76.3468 119.789 74.3989 112.901 74.3989C106.013 74.3989 99.2653 76.3468 93.4342 80.0182L92.98 80.3431Z" fill="#093F68"/>
<path d="M112.902 51.9475C105.446 52.087 98.1237 49.9572 91.9031 45.8396C91.345 45.4497 90.7999 45.0339 90.2678 44.54C90.0063 44.32 89.8418 44.0056 89.8102 43.665C89.7787 43.3244 89.8825 42.9851 90.0991 42.7206C90.6183 42.0968 91.1763 41.4211 91.7473 40.9012C94.5127 38.0993 97.8058 35.8748 101.436 34.3565C105.066 32.8383 108.961 32.0565 112.895 32.0565C116.829 32.0565 120.724 32.8383 124.354 34.3565C127.984 35.8748 131.277 38.0993 134.043 40.9012C134.614 41.4731 135.172 42.0838 135.691 42.7076C135.908 42.9721 136.011 43.3114 135.98 43.652C135.948 43.9926 135.784 44.307 135.522 44.527C134.99 44.9689 134.445 45.3977 133.887 45.8266C127.672 49.947 120.354 52.0814 112.902 51.9475ZM92.9803 43.4094L93.3956 43.7083C99.2338 47.3928 105.994 49.348 112.895 49.348C119.796 49.348 126.556 47.3928 132.395 43.7083L132.81 43.4094L132.213 42.7856C129.688 40.2269 126.681 38.1954 123.366 36.809C120.051 35.4225 116.494 34.7086 112.902 34.7086C109.309 34.7086 105.752 35.4225 102.437 36.809C99.1226 38.1954 96.1154 40.2269 93.5902 42.7856L92.9803 43.4094Z" fill="#093F68"/>
<path d="M112.889 91.7012C103.013 91.7012 95.291 78.6016 95.291 61.9022C95.291 45.2028 103.078 32.1031 112.889 32.1031C122.701 32.1031 130.5 45.4757 130.5 61.9022C130.5 78.6016 122.766 91.7012 112.889 91.7012ZM112.889 34.7023C104.609 34.7023 97.8866 46.9052 97.8866 61.9022C97.8866 76.8992 104.609 89.1021 112.889 89.1021C121.169 89.1021 127.905 76.8992 127.905 61.9022C127.905 46.9052 121.169 34.7023 112.889 34.7023Z" fill="#093F68"/>
<path d="M141.336 63.2018H84.4404C84.0962 63.2018 83.7661 63.0649 83.5227 62.8212C83.2793 62.5774 83.1426 62.2469 83.1426 61.9022C83.1426 61.5576 83.2793 61.227 83.5227 60.9833C83.7661 60.7396 84.0962 60.6027 84.4404 60.6027H141.336C141.68 60.6027 142.01 60.7396 142.254 60.9833C142.497 61.227 142.634 61.5576 142.634 61.9022C142.634 62.2469 142.497 62.5774 142.254 62.8212C142.01 63.0649 141.68 63.2018 141.336 63.2018Z" fill="#093F68"/>
<path d="M112.888 91.7012C112.543 91.7012 112.213 91.5643 111.97 91.3206C111.727 91.0769 111.59 90.7463 111.59 90.4017V33.4027C111.59 33.058 111.727 32.7275 111.97 32.4838C112.213 32.2401 112.543 32.1031 112.888 32.1031C113.232 32.1031 113.562 32.2401 113.805 32.4838C114.049 32.7275 114.185 33.058 114.185 33.4027V90.4017C114.185 90.7463 114.049 91.0769 113.805 91.3206C113.562 91.5643 113.232 91.7012 112.888 91.7012Z" fill="#093F68"/>
<path d="M90.4356 17.2492H51.6572C51.313 17.2492 50.9829 17.1122 50.7395 16.8685C50.4961 16.6248 50.3594 16.2943 50.3594 15.9496C50.3594 15.6049 50.4961 15.2744 50.7395 15.0307C50.9829 14.7869 51.313 14.65 51.6572 14.65H90.4356C90.7798 14.65 91.1099 14.7869 91.3533 15.0307C91.5967 15.2744 91.7334 15.6049 91.7334 15.9496C91.7334 16.2943 91.5967 16.6248 91.3533 16.8685C91.1099 17.1122 90.7798 17.2492 90.4356 17.2492Z" fill="#A5D8EF"/>
<path d="M62.6362 34.7023H51.7216C51.3774 34.7023 51.0473 34.5654 50.8039 34.3216C50.5606 34.0779 50.4238 33.7474 50.4238 33.4027C50.4238 33.058 50.5606 32.7275 50.8039 32.4838C51.0473 32.2401 51.3774 32.1031 51.7216 32.1031H62.6362C62.9804 32.1031 63.3105 32.2401 63.5539 32.4838C63.7973 32.7275 63.934 33.058 63.934 33.4027C63.934 33.7474 63.7973 34.0779 63.5539 34.3216C63.3105 34.5654 62.9804 34.7023 62.6362 34.7023Z" fill="#A5D8EF"/>
<path d="M77.627 109.167H51.6709C51.3267 109.167 50.9965 109.031 50.7532 108.787C50.5098 108.543 50.373 108.213 50.373 107.868C50.373 107.523 50.5098 107.193 50.7532 106.949C50.9965 106.705 51.3267 106.568 51.6709 106.568H77.627C77.9712 106.568 78.3013 106.705 78.5446 106.949C78.788 107.193 78.9248 107.523 78.9248 107.868C78.9248 108.213 78.788 108.543 78.5446 108.787C78.3013 109.031 77.9712 109.167 77.627 109.167Z" fill="#A5D8EF"/>
<path d="M178.519 19.8872H149.591C149.247 19.8872 148.916 19.7503 148.673 19.5066C148.43 19.2629 148.293 18.9323 148.293 18.5877C148.293 18.243 148.43 17.9125 148.673 17.6687C148.916 17.425 149.247 17.2881 149.591 17.2881H178.571C178.915 17.2881 179.245 17.425 179.488 17.6687C179.732 17.9125 179.869 18.243 179.869 18.5877C179.869 18.9323 179.732 19.2629 179.488 19.5066C179.245 19.7503 178.915 19.8872 178.571 19.8872H178.519Z" fill="#A5D8EF"/>
<path d="M175.778 33.0779H160.827C160.483 33.0779 160.153 32.9409 159.909 32.6972C159.666 32.4535 159.529 32.123 159.529 31.7783C159.529 31.4336 159.666 31.1031 159.909 30.8594C160.153 30.6156 160.483 30.4787 160.827 30.4787H175.778C176.122 30.4787 176.452 30.6156 176.695 30.8594C176.939 31.1031 177.076 31.4336 177.076 31.7783C177.076 32.123 176.939 32.4535 176.695 32.6972C176.452 32.9409 176.122 33.0779 175.778 33.0779Z" fill="#A5D8EF"/>
<path d="M175.778 46.2684H160.827C160.483 46.2684 160.153 46.1315 159.909 45.8878C159.666 45.6441 159.529 45.3135 159.529 44.9689C159.529 44.6242 159.666 44.2937 159.909 44.0499C160.153 43.8062 160.483 43.6693 160.827 43.6693H175.778C176.122 43.6693 176.452 43.8062 176.695 44.0499C176.939 44.2937 177.076 44.6242 177.076 44.9689C177.076 45.3135 176.939 45.6441 176.695 45.8878C176.452 46.1315 176.122 46.2684 175.778 46.2684Z" fill="#A5D8EF"/>
<path d="M59.5608 78.3157H51.6572C51.313 78.3157 50.9829 78.1788 50.7395 77.9351C50.4961 77.6914 50.3594 77.3608 50.3594 77.0162C50.3594 76.6715 50.4961 76.341 50.7395 76.0972C50.9829 75.8535 51.313 75.7166 51.6572 75.7166H59.5608C59.905 75.7166 60.2351 75.8535 60.4785 76.0972C60.7219 76.341 60.8586 76.6715 60.8586 77.0162C60.8586 77.3608 60.7219 77.6914 60.4785 77.9351C60.2351 78.1788 59.905 78.3157 59.5608 78.3157Z" fill="#A5D8EF"/>
<path d="M168.967 217.096H57.5244C57.1802 217.096 56.8501 216.959 56.6067 216.716C56.3633 216.472 56.2266 216.141 56.2266 215.797C56.2266 215.452 56.3633 215.122 56.6067 214.878C56.8501 214.634 57.1802 214.497 57.5244 214.497H168.967C169.311 214.497 169.641 214.634 169.885 214.878C170.128 215.122 170.265 215.452 170.265 215.797C170.265 216.141 170.128 216.472 169.885 216.716C169.641 216.959 169.311 217.096 168.967 217.096Z" fill="#DFEAEF"/>
<defs>
<linearGradient id="paint0_linear_861_1592" x1="113.252" y1="27.0596" x2="113.252" y2="184.05" gradientUnits="userSpaceOnUse">
<stop stop-color="#6CD7D4"/>
<stop offset="1" stop-color="#C1F8E3" stop-opacity="0.08"/>
</linearGradient>
<linearGradient id="paint1_linear_861_1592" x1="113.244" y1="184.009" x2="113.244" y2="215.797" gradientUnits="userSpaceOnUse">
<stop stop-color="#6CD7D4"/>
<stop offset="1" stop-color="#C1F8E3"/>
</linearGradient>
<linearGradient id="paint2_linear_861_1592" x1="160.476" y1="106.998" x2="145.23" y2="92.5957" gradientUnits="userSpaceOnUse">
<stop stop-color="#6CD7D4"/>
<stop offset="1" stop-color="#C1F8E3"/>
</linearGradient>
<linearGradient id="paint3_linear_861_1592" x1="148.56" y1="95.7268" x2="133.314" y2="81.3241" gradientUnits="userSpaceOnUse">
<stop stop-color="#6CD7D4"/>
<stop offset="1" stop-color="#C1F8E3"/>
</linearGradient>
<linearGradient id="paint4_linear_861_1592" x1="193.226" y1="138.019" x2="158.307" y2="105.031" gradientUnits="userSpaceOnUse">
<stop stop-color="#6CD7D4"/>
<stop offset="1" stop-color="#C1F8E3"/>
</linearGradient>
<linearGradient id="paint5_linear_861_1592" x1="112.883" y1="20.4463" x2="112.883" y2="103.359" gradientUnits="userSpaceOnUse">
<stop stop-color="#6CD7D4"/>
<stop offset="1" stop-color="#C1F8E3"/>
</linearGradient>
</defs>
</svg>
