<svg width="305" height="290" viewBox="0 0 305 290" fill="none" xmlns="http://www.w3.org/2000/svg">
<mask id="path-1-inside-1_2080_4591" fill="white">
<rect x="88" y="43" width="128.571" height="200" rx="2"/>
</mask>
<rect x="88" y="43" width="128.571" height="200" rx="2" stroke="#88839A" stroke-width="6" stroke-linejoin="round" mask="url(#path-1-inside-1_2080_4591)"/>
<line x1="110.928" y1="81.5" x2="193.642" y2="81.5" stroke="#88839A" stroke-width="3" stroke-linecap="round"/>
<line x1="110.928" y1="64.3572" x2="193.642" y2="64.3572" stroke="#88839A" stroke-width="3" stroke-linecap="round"/>
<rect x="112.215" y="100.071" width="80.1429" height="121.571" stroke="#88839A" stroke-width="3" stroke-linejoin="round"/>
<path d="M139.819 160.559H133.713L138.423 164.371L135.962 171.089L142.146 166.936V154.217L139.819 160.559Z" fill="#88839A" fill-opacity="0.5"/>
<path d="M164.639 155.28V145.039C164.627 143.368 163.98 141.769 162.837 140.588C161.694 139.408 160.148 138.741 158.533 138.731L142.146 138.714V154.217L144.468 160.571H150.574L145.864 164.383L148.325 171.101L142.146 166.936V183H158.399C160.054 182.995 161.639 182.313 162.808 181.101C163.978 179.89 164.636 178.249 164.639 176.536V166.428C164.639 165.181 164.253 163.966 163.537 162.962C162.82 161.959 161.812 161.22 160.659 160.854C161.812 160.488 162.82 159.749 163.537 158.746C164.253 157.742 164.639 156.528 164.639 155.28ZM157.595 172.279C157.595 172.678 157.52 173.072 157.372 173.44C157.225 173.808 157.009 174.142 156.737 174.424C156.465 174.705 156.142 174.929 155.787 175.081C155.431 175.233 155.05 175.312 154.665 175.312H150.01V164.499H154.665C155.05 164.499 155.431 164.577 155.787 164.73C156.142 164.882 156.465 165.105 156.737 165.387C157.009 165.669 157.225 166.003 157.372 166.371C157.52 166.739 157.595 167.133 157.595 167.531V172.279ZM157.595 153.796C157.595 154.194 157.52 154.588 157.372 154.956C157.225 155.324 157.009 155.658 156.737 155.94C156.465 156.222 156.142 156.445 155.787 156.597C155.431 156.75 155.05 156.828 154.665 156.828H150.01V146.431H154.665C155.05 146.431 155.431 146.509 155.787 146.662C156.142 146.814 156.465 147.038 156.737 147.319C157.009 147.601 157.225 147.935 157.372 148.303C157.52 148.671 157.595 149.065 157.595 149.464V153.796Z" fill="#88839A" fill-opacity="0.5"/>
<line x1="123.785" y1="210.071" x2="180.785" y2="210.071" stroke="#88839A" stroke-width="3" stroke-linecap="round"/>
<line x1="123.785" y1="112.929" x2="180.785" y2="112.929" stroke="#88839A" stroke-width="3" stroke-linecap="round"/>
<path d="M52.7495 20.5C52.7495 20.1429 52.65 19.7929 52.4622 19.4892C52.2743 19.1855 52.0056 18.9402 51.6861 18.7807L43.2899 14.583L39.0938 6.18762C38.4428 4.88635 36.3063 4.88635 35.6553 6.18762L31.4584 14.583L23.063 18.7807C22.7436 18.9403 22.475 19.1856 22.2872 19.4893C22.0995 19.793 22 20.143 22 20.5C22 20.857 22.0995 21.207 22.2872 21.5107C22.475 21.8143 22.7436 22.0597 23.063 22.2193L31.4584 26.417L35.6553 34.8131C35.8148 35.1325 36.0602 35.4012 36.3639 35.5889C36.6675 35.7767 37.0175 35.8761 37.3745 35.8761C37.7316 35.8761 38.0815 35.7767 38.3852 35.5889C38.6889 35.4012 38.9343 35.1325 39.0938 34.8131L43.2899 26.417L51.6861 22.2193C52.0056 22.0598 52.2743 21.8144 52.4622 21.5107C52.65 21.2071 52.7495 20.8571 52.7495 20.5ZM41.0005 23.2651C40.628 23.451 40.3259 23.7528 40.1396 24.1251L37.3745 29.6553L34.6095 24.1251C34.4232 23.7528 34.1211 23.451 33.7486 23.2651L28.2184 20.5L33.7486 17.7349C34.121 17.5492 34.4231 17.2477 34.6095 16.8757L37.3745 11.3447L40.1396 16.8757C40.326 17.2477 40.6281 17.5492 41.0005 17.7349L46.5307 20.5L41.0005 23.2651Z" fill="#88839A"/>
<path d="M267.75 269.5C267.75 269.143 267.65 268.793 267.462 268.489C267.274 268.186 267.006 267.94 266.686 267.781L258.29 263.583L254.094 255.188C253.443 253.886 251.306 253.886 250.655 255.188L246.458 263.583L238.063 267.781C237.744 267.94 237.475 268.186 237.287 268.489C237.099 268.793 237 269.143 237 269.5C237 269.857 237.099 270.207 237.287 270.511C237.475 270.814 237.744 271.06 238.063 271.219L246.458 275.417L250.655 283.813C250.815 284.133 251.06 284.401 251.364 284.589C251.668 284.777 252.018 284.876 252.375 284.876C252.732 284.876 253.082 284.777 253.385 284.589C253.689 284.401 253.934 284.133 254.094 283.813L258.29 275.417L266.686 271.219C267.006 271.06 267.274 270.814 267.462 270.511C267.65 270.207 267.75 269.857 267.75 269.5ZM256 272.265C255.628 272.451 255.326 272.753 255.14 273.125L252.375 278.655L249.609 273.125C249.423 272.753 249.121 272.451 248.749 272.265L243.218 269.5L248.749 266.735C249.121 266.549 249.423 266.248 249.609 265.876L252.375 260.345L255.14 265.876C255.326 266.248 255.628 266.549 256 266.735L261.531 269.5L256 272.265Z" fill="#88839A"/>
<path d="M15.6308 157.403L10.6663 155.334L8.5966 150.369C8.54131 150.258 8.4562 150.165 8.35081 150.1C8.24542 150.035 8.12394 150 8 150C7.87606 150 7.75458 150.035 7.64919 150.1C7.54381 150.165 7.45869 150.258 7.4034 150.369L5.33365 155.334L0.369247 157.403C0.258322 157.459 0.165008 157.544 0.0997824 157.649C0.0345565 157.755 0 157.876 0 158C0 158.124 0.0345565 158.245 0.0997824 158.351C0.165008 158.456 0.258322 158.541 0.369247 158.597L5.33365 160.666L7.4034 165.631C7.45869 165.742 7.54381 165.835 7.64919 165.9C7.75458 165.965 7.87606 166 8 166C8.12394 166 8.24542 165.965 8.35081 165.9C8.4562 165.835 8.54131 165.742 8.5966 165.631L10.6663 160.666L15.6308 158.597C15.7417 158.541 15.835 158.456 15.9002 158.351C15.9654 158.245 16 158.124 16 158C16 157.876 15.9654 157.755 15.9002 157.649C15.835 157.544 15.7417 157.459 15.6308 157.403Z" fill="#88839A"/>
<path d="M51.5384 269.254L45.3329 266.667L42.7457 260.462C42.6766 260.323 42.5702 260.206 42.4385 260.125C42.3068 260.043 42.1549 260 42 260C41.8451 260 41.6932 260.043 41.5615 260.125C41.4298 260.206 41.3234 260.323 41.2543 260.462L38.6671 266.667L32.4616 269.254C32.3229 269.323 32.2063 269.43 32.1247 269.561C32.0432 269.693 32 269.845 32 270C32 270.155 32.0432 270.307 32.1247 270.439C32.2063 270.57 32.3229 270.677 32.4616 270.746L38.6671 273.333L41.2543 279.538C41.3234 279.677 41.4298 279.794 41.5615 279.875C41.6932 279.957 41.8451 280 42 280C42.1549 280 42.3068 279.957 42.4385 279.875C42.5702 279.794 42.6766 279.677 42.7457 279.538L45.3329 273.333L51.5384 270.746C51.6771 270.677 51.7937 270.57 51.8753 270.439C51.9568 270.307 52 270.155 52 270C52 269.845 51.9568 269.693 51.8753 269.561C51.7937 269.43 51.6771 269.323 51.5384 269.254Z" fill="#88839A"/>
<path d="M257.631 24.4034L252.666 22.3337L250.597 17.3692C250.541 17.2583 250.456 17.165 250.351 17.0998C250.245 17.0346 250.124 17 250 17C249.876 17 249.755 17.0346 249.649 17.0998C249.544 17.165 249.459 17.2583 249.403 17.3692L247.334 22.3337L242.369 24.4034C242.258 24.4587 242.165 24.5438 242.1 24.6492C242.035 24.7546 242 24.8761 242 25C242 25.1239 242.035 25.2454 242.1 25.3508C242.165 25.4562 242.258 25.5413 242.369 25.5966L247.334 27.6663L249.403 32.6308C249.459 32.7417 249.544 32.835 249.649 32.9002C249.755 32.9654 249.876 33 250 33C250.124 33 250.245 32.9654 250.351 32.9002C250.456 32.835 250.541 32.7417 250.597 32.6308L252.666 27.6663L257.631 25.5966C257.742 25.5413 257.835 25.4562 257.9 25.3508C257.965 25.2454 258 25.1239 258 25C258 24.8761 257.965 24.7546 257.9 24.6492C257.835 24.5438 257.742 24.4587 257.631 24.4034Z" fill="#88839A"/>
<path d="M304.538 126.254L298.333 123.667L295.746 117.462C295.677 117.323 295.57 117.206 295.439 117.125C295.307 117.043 295.155 117 295 117C294.845 117 294.693 117.043 294.561 117.125C294.43 117.206 294.323 117.323 294.254 117.462L291.667 123.667L285.462 126.254C285.323 126.323 285.206 126.43 285.125 126.561C285.043 126.693 285 126.845 285 127C285 127.155 285.043 127.307 285.125 127.439C285.206 127.57 285.323 127.677 285.462 127.746L291.667 130.333L294.254 136.538C294.323 136.677 294.43 136.794 294.561 136.875C294.693 136.957 294.845 137 295 137C295.155 137 295.307 136.957 295.439 136.875C295.57 136.794 295.677 136.677 295.746 136.538L298.333 130.333L304.538 127.746C304.677 127.677 304.794 127.57 304.875 127.439C304.957 127.307 305 127.155 305 127C305 126.845 304.957 126.693 304.875 126.561C304.794 126.43 304.677 126.323 304.538 126.254Z" fill="#88839A"/>
</svg>
