<svg width="232" height="220" viewBox="0 0 232 220" fill="none" xmlns="http://www.w3.org/2000/svg">
<mask id="path-1-inside-1_2080_4591" fill="white">
<rect x="66.7598" y="32.6208" width="97.5369" height="151.724" rx="2"/>
</mask>
<rect x="66.7598" y="32.6208" width="97.5369" height="151.724" rx="2" stroke="#88839A" stroke-width="6" stroke-linejoin="round" mask="url(#path-1-inside-1_2080_4591)"/>
<line x1="84.5156" y1="61.4656" x2="146.54" y2="61.4656" stroke="#88839A" stroke-width="3" stroke-linecap="round"/>
<line x1="84.5156" y1="48.4609" x2="146.54" y2="48.4609" stroke="#88839A" stroke-width="3" stroke-linecap="round"/>
<rect x="84.7676" y="75.5542" width="61.5222" height="92.9507" stroke="#88839A" stroke-width="3" stroke-linejoin="round"/>
<path d="M106.07 121.804H101.438L105.011 124.696L103.144 129.792L107.835 126.641V116.992L106.07 121.804Z" fill="#88839A" fill-opacity="0.5"/>
<path d="M124.899 117.799V110.03C124.89 108.762 124.399 107.549 123.532 106.653C122.665 105.758 121.492 105.251 120.267 105.245L107.836 105.231V116.992L109.597 121.813H114.229L110.656 124.705L112.523 129.801L107.836 126.641V138.828H120.165C121.421 138.824 122.623 138.306 123.51 137.387C124.398 136.468 124.897 135.223 124.899 133.924V126.256C124.9 125.309 124.606 124.388 124.063 123.627C123.52 122.866 122.755 122.305 121.88 122.027C122.755 121.75 123.52 121.189 124.063 120.428C124.606 119.667 124.9 118.745 124.899 117.799V117.799ZM119.556 130.695C119.556 130.997 119.498 131.296 119.387 131.575C119.275 131.854 119.111 132.108 118.905 132.321C118.698 132.535 118.453 132.704 118.184 132.82C117.914 132.936 117.625 132.995 117.333 132.995H113.802V124.792H117.333C117.625 124.792 117.914 124.852 118.184 124.967C118.453 125.083 118.698 125.252 118.905 125.466C119.111 125.68 119.275 125.933 119.387 126.212C119.498 126.492 119.556 126.791 119.556 127.093V130.695ZM119.556 116.673C119.556 116.975 119.498 117.274 119.387 117.553C119.275 117.832 119.111 118.086 118.905 118.299C118.698 118.513 118.453 118.682 118.184 118.798C117.914 118.914 117.625 118.973 117.333 118.973H113.802V111.086H117.333C117.625 111.086 117.914 111.145 118.184 111.261C118.453 111.376 118.698 111.546 118.905 111.759C119.111 111.973 119.275 112.227 119.387 112.506C119.498 112.785 119.556 113.084 119.556 113.386V116.673Z" fill="#88839A" fill-opacity="0.5"/>
<line x1="94.2676" y1="159.002" x2="136.785" y2="159.002" stroke="#88839A" stroke-width="3" stroke-linecap="round"/>
<line x1="94.2676" y1="85.3081" x2="136.785" y2="85.3081" stroke="#88839A" stroke-width="3" stroke-linecap="round"/>
<g clip-path="url(#clip0_2080_4591)">
<path d="M40.0167 15.5516C40.0167 15.2808 39.9412 15.0152 39.7987 14.7849C39.6562 14.5545 39.4523 14.3684 39.21 14.2474L32.8404 11.0629L29.6572 4.69399C29.1633 3.70682 27.5425 3.70682 27.0486 4.69399L23.8648 11.0629L17.4959 14.2474C17.2536 14.3684 17.0498 14.5546 16.9073 14.7849C16.7649 15.0153 16.6895 15.2808 16.6895 15.5516C16.6895 15.8225 16.7649 16.088 16.9073 16.3184C17.0498 16.5487 17.2536 16.7349 17.4959 16.8559L23.8648 20.0404L27.0486 26.4099C27.1697 26.6522 27.3558 26.856 27.5862 26.9984C27.8166 27.1409 28.0821 27.2163 28.3529 27.2163C28.6238 27.2163 28.8892 27.1409 29.1196 26.9984C29.35 26.856 29.5361 26.6522 29.6572 26.4099L32.8404 20.0404L39.21 16.8559C39.4523 16.7349 39.6562 16.5488 39.7987 16.3184C39.9412 16.0881 40.0167 15.8225 40.0167 15.5516ZM31.1036 17.6493C30.821 17.7903 30.5918 18.0193 30.4506 18.3017L28.3529 22.4971L26.2552 18.3017C26.114 18.0193 25.8848 17.7903 25.6022 17.6493L21.4069 15.5516L25.6022 13.454C25.8847 13.3131 26.1139 13.0844 26.2552 12.8021L28.3529 8.60622L30.4506 12.8021C30.5919 13.0844 30.8211 13.3131 31.1036 13.454L35.2989 15.5516L31.1036 17.6493Z" fill="#88839A"/>
</g>
<g clip-path="url(#clip1_2080_4591)">
<path d="M203.12 204.448C203.12 204.177 203.045 203.912 202.902 203.681C202.76 203.451 202.556 203.265 202.313 203.144L195.944 199.959L192.761 193.59C192.267 192.603 190.646 192.603 190.152 193.59L186.968 199.959L180.599 203.144C180.357 203.265 180.153 203.451 180.011 203.681C179.868 203.912 179.793 204.177 179.793 204.448C179.793 204.719 179.868 204.984 180.011 205.215C180.153 205.445 180.357 205.631 180.599 205.752L186.968 208.937L190.152 215.306C190.273 215.549 190.459 215.752 190.69 215.895C190.92 216.037 191.186 216.113 191.456 216.113C191.727 216.113 191.993 216.037 192.223 215.895C192.454 215.752 192.64 215.549 192.761 215.306L195.944 208.937L202.313 205.752C202.556 205.631 202.76 205.445 202.902 205.215C203.045 204.985 203.12 204.719 203.12 204.448ZM194.207 206.546C193.925 206.687 193.695 206.916 193.554 207.198L191.456 211.394L189.359 207.198C189.217 206.916 188.988 206.687 188.706 206.546L184.51 204.448L188.706 202.35C188.988 202.21 189.217 201.981 189.359 201.699L191.456 197.503L193.554 201.699C193.695 201.981 193.925 202.21 194.207 202.35L198.402 204.448L194.207 206.546Z" fill="#88839A"/>
</g>
<path d="M11.8578 119.41L8.09171 117.839L6.52156 114.073C6.47962 113.989 6.41505 113.918 6.3351 113.869C6.25515 113.819 6.16299 113.793 6.06897 113.793C5.97494 113.793 5.88278 113.819 5.80284 113.869C5.72289 113.918 5.65832 113.989 5.61638 114.073L4.04622 117.839L0.280118 119.41C0.195968 119.452 0.125179 119.516 0.075697 119.596C0.0262153 119.676 0 119.768 0 119.862C0 119.956 0.0262153 120.048 0.075697 120.128C0.125179 120.208 0.195968 120.273 0.280118 120.315L4.04622 121.885L5.61638 125.651C5.65832 125.735 5.72289 125.806 5.80284 125.855C5.88278 125.905 5.97494 125.931 6.06897 125.931C6.16299 125.931 6.25515 125.905 6.3351 125.855C6.41505 125.806 6.47962 125.735 6.52156 125.651L8.09171 121.885L11.8578 120.315C11.942 120.273 12.0128 120.208 12.0622 120.128C12.1117 120.048 12.1379 119.956 12.1379 119.862C12.1379 119.768 12.1117 119.676 12.0622 119.596C12.0128 119.516 11.942 119.452 11.8578 119.41Z" fill="#88839A"/>
<path d="M39.0977 204.262L34.39 202.299L32.4273 197.591C32.3749 197.486 32.2942 197.398 32.1943 197.336C32.0943 197.274 31.9791 197.241 31.8616 197.241C31.7441 197.241 31.6289 197.274 31.5289 197.336C31.429 197.398 31.3483 197.486 31.2959 197.591L29.3332 202.299L24.6255 204.262C24.5204 204.314 24.4319 204.395 24.37 204.495C24.3082 204.595 24.2754 204.71 24.2754 204.827C24.2754 204.945 24.3082 205.06 24.37 205.16C24.4319 205.26 24.5204 205.341 24.6255 205.393L29.3332 207.356L31.2959 212.063C31.3483 212.169 31.429 212.257 31.5289 212.319C31.6289 212.381 31.7441 212.414 31.8616 212.414C31.9791 212.414 32.0943 212.381 32.1943 212.319C32.2942 212.257 32.3749 212.169 32.4273 212.063L34.39 207.356L39.0977 205.393C39.2028 205.341 39.2913 205.26 39.3532 205.16C39.415 205.06 39.4478 204.945 39.4478 204.827C39.4478 204.71 39.415 204.595 39.3532 204.495C39.2913 204.395 39.2028 204.314 39.0977 204.262Z" fill="#88839A"/>
<path d="M195.444 18.5129L191.678 16.9427L190.107 13.1766C190.066 13.0925 190.001 13.0217 189.921 12.9722C189.841 12.9227 189.749 12.8965 189.655 12.8965C189.561 12.8965 189.469 12.9227 189.389 12.9722C189.309 13.0217 189.244 13.0925 189.202 13.1766L187.632 16.9427L183.866 18.5129C183.782 18.5548 183.711 18.6194 183.662 18.6993C183.612 18.7793 183.586 18.8714 183.586 18.9654C183.586 19.0595 183.612 19.1516 183.662 19.2316C183.711 19.3115 183.782 19.3761 183.866 19.418L187.632 20.9882L189.202 24.7543C189.244 24.8384 189.309 24.9092 189.389 24.9587C189.469 25.0082 189.561 25.0344 189.655 25.0344C189.749 25.0344 189.841 25.0082 189.921 24.9587C190.001 24.9092 190.066 24.8384 190.107 24.7543L191.678 20.9882L195.444 19.418C195.528 19.3761 195.599 19.3115 195.648 19.2316C195.698 19.1516 195.724 19.0595 195.724 18.9654C195.724 18.8714 195.698 18.7793 195.648 18.6993C195.599 18.6194 195.528 18.5548 195.444 18.5129Z" fill="#88839A"/>
<path d="M231.029 95.7793L226.322 93.8166L224.359 89.1089C224.307 89.0037 224.226 88.9153 224.126 88.8534C224.026 88.7916 223.911 88.7588 223.793 88.7588C223.676 88.7588 223.561 88.7916 223.461 88.8534C223.361 88.9153 223.28 89.0037 223.228 89.1089L221.265 93.8166L216.557 95.7793C216.452 95.8317 216.364 95.9124 216.302 96.0123C216.24 96.1123 216.207 96.2275 216.207 96.345C216.207 96.4625 216.24 96.5777 216.302 96.6777C216.364 96.7776 216.452 96.8583 216.557 96.9107L221.265 98.8734L223.228 103.581C223.28 103.686 223.361 103.775 223.461 103.837C223.561 103.898 223.676 103.931 223.793 103.931C223.911 103.931 224.026 103.898 224.126 103.837C224.226 103.775 224.307 103.686 224.359 103.581L226.322 98.8734L231.029 96.9107C231.134 96.8583 231.223 96.7776 231.285 96.6777C231.347 96.5777 231.379 96.4625 231.379 96.345C231.379 96.2275 231.347 96.1123 231.285 96.0123C231.223 95.9124 231.134 95.8317 231.029 95.7793Z" fill="#88839A"/>
<defs>
<clipPath id="clip0_2080_4591">
<rect width="31.1034" height="31.1034" fill="white" transform="translate(16.6895)"/>
</clipPath>
<clipPath id="clip1_2080_4591">
<rect width="31.1034" height="31.1034" fill="white" transform="translate(179.793 188.896)"/>
</clipPath>
</defs>
</svg>
