<svg width="111" height="29" viewBox="0 0 111 29" fill="none" xmlns="http://www.w3.org/2000/svg">
<path fill-rule="evenodd" clip-rule="evenodd" d="M44.6178 22.9257V16.6779H49.7188V24.0906C49.7188 24.6356 49.6115 25.1752 49.4029 25.6786C49.1944 26.1821 48.8888 26.6395 48.5034 27.0248C48.1181 27.4101 47.6607 27.7158 47.1572 27.9243C46.6538 28.1329 46.1142 28.2402 45.5692 28.2402H39.9653C39.4203 28.2407 38.8805 28.1337 38.3768 27.9253C37.8731 27.7169 37.4155 27.4113 37.0301 27.0259C36.6447 26.6405 36.339 26.1828 36.1307 25.6792C35.9223 25.1755 35.8153 24.6357 35.8158 24.0906V4.12786C35.8148 3.03654 36.2464 1.98933 37.0161 1.21562C37.7857 0.441912 38.8306 0.00478605 39.9219 0H45.5475C46.6443 0.00573731 47.6942 0.445454 48.4677 1.22303C49.2412 2.0006 49.6754 3.05278 49.6754 4.14957V11.6021H44.6105V5.3579H40.8806V22.9257H44.6178ZM68.7989 27.9942L62.3376 14.1346L68.7989 0.278567H63.3252L56.9724 13.9018V0.278566H51.8605V27.9942H56.9724V14.3674L63.3252 27.9942H68.7989ZM81.9168 0.278567V5.34704H75.6003V11.6021H81.9168V16.667H75.6003V22.9257H81.9168V27.9942H70.492H70.4884L70.492 0.278567H81.9168ZM108.429 25.8107C108.275 26.0415 108.193 26.3129 108.193 26.5905C108.186 26.7766 108.218 26.9621 108.286 27.1354C108.354 27.3086 108.457 27.466 108.589 27.5977C108.721 27.7294 108.878 27.8325 109.051 27.9007C109.225 27.969 109.41 28.0008 109.596 27.9942C109.874 27.9942 110.145 27.9119 110.376 27.7576C110.607 27.6034 110.787 27.3842 110.893 27.1277C110.999 26.8712 111.027 26.589 110.973 26.3167C110.919 26.0444 110.785 25.7943 110.589 25.5979C110.393 25.4016 110.142 25.2679 109.87 25.2138C109.598 25.1596 109.316 25.1874 109.059 25.2937C108.803 25.3999 108.583 25.5798 108.429 25.8107ZM110.513 25.9875C110.632 26.166 110.696 26.3759 110.696 26.5905H110.703C110.703 26.7336 110.675 26.8754 110.62 27.0075C110.565 27.1397 110.484 27.2596 110.383 27.3605C110.281 27.4614 110.161 27.5412 110.028 27.5953C109.896 27.6494 109.754 27.6768 109.611 27.6758C109.396 27.6758 109.186 27.6122 109.008 27.4929C108.829 27.3737 108.69 27.2042 108.608 27.0058C108.526 26.8075 108.504 26.5893 108.546 26.3788C108.588 26.1682 108.692 25.9748 108.843 25.8231C108.995 25.6713 109.188 25.5679 109.399 25.526C109.61 25.4842 109.828 25.5056 110.026 25.5878C110.224 25.6699 110.394 25.8091 110.513 25.9875ZM108.996 25.8923V27.2706H109.289V26.822H109.958V27.2706H110.251V26.8618C110.253 26.8423 110.251 26.8224 110.245 26.8038C110.238 26.7852 110.228 26.7683 110.214 26.7544C110.2 26.7404 110.183 26.7298 110.164 26.7234C110.146 26.7169 110.126 26.7148 110.106 26.7171H109.86V26.6014C110.103 26.5797 110.251 26.5218 110.251 26.2902C110.251 25.9683 109.897 25.8923 109.567 25.8923H108.996ZM109.567 26.5471H109.289V26.207H109.567L109.595 26.207C109.821 26.2067 109.958 26.2066 109.958 26.3734C109.958 26.5471 109.81 26.5471 109.567 26.5471ZM97.4298 0.278567H84.0405V5.34704H87.499V27.9942H92.6109V5.34704H95.5051L97.4298 0.278567ZM99.5679 0.278567H110.996V5.35066H107.028V27.9942H101.916V5.35066H97.6432L99.5679 0.278567ZM33.6343 0.278567V5.34704H27.3177V11.6021H33.6343V16.6779H27.3177V22.9257H33.6343V27.9942H22.213H22.2094L22.213 0.278567H33.6343ZM3.95783 13.9464H0L3.05339 16.3342L1.45796 20.5416L5.46643 17.9405V28.0014H16.0013C17.0738 27.9986 18.1014 27.571 18.8594 26.8123C19.6174 26.0537 20.0441 25.0256 20.046 23.9532V17.6221C20.0463 16.8407 19.7959 16.0799 19.3315 15.4515C18.8672 14.823 18.2135 14.3602 17.4665 14.131C18.2135 13.9017 18.8672 13.4389 19.3315 12.8104C19.7959 12.182 20.0463 11.4212 20.046 10.6398V4.22554C20.0384 3.17887 19.6187 2.17734 18.8779 1.4379C18.1371 0.698449 17.1348 0.280631 16.0882 0.274949L5.46643 0.264096V9.97415L3.95783 13.9464ZM5.46643 9.97415V17.9405L9.47128 20.5489L7.87585 16.3414L10.9292 13.9537H6.97142L5.46643 9.97415ZM15.3358 22.0137C15.4312 21.7833 15.4804 21.5363 15.4804 21.2869V18.3131C15.4804 18.0637 15.4312 17.8167 15.3358 17.5862C15.2403 17.3558 15.1004 17.1464 14.9241 16.9701C14.7477 16.7937 14.5383 16.6538 14.3079 16.5583C14.0775 16.4629 13.8305 16.4138 13.5811 16.4138H10.5638V23.1862H13.5811C13.8305 23.1862 14.0775 23.1371 14.3079 23.0416C14.5383 22.9462 14.7477 22.8063 14.9241 22.6299C15.1004 22.4535 15.2403 22.2442 15.3358 22.0137ZM15.3358 10.4369C15.4312 10.2065 15.4804 9.95948 15.4804 9.71006V6.99674C15.4804 6.74732 15.4312 6.50034 15.3358 6.2699C15.2403 6.03946 15.1004 5.83009 14.9241 5.65372C14.7477 5.47735 14.5383 5.33745 14.3079 5.242C14.0775 5.14655 13.8305 5.09742 13.5811 5.09742H10.5638V11.6094H13.5811C13.8305 11.6094 14.0775 11.5603 14.3079 11.4648C14.5383 11.3694 14.7477 11.2294 14.9241 11.0531C15.1004 10.8767 15.2403 10.6673 15.3358 10.4369Z" fill="white"/>
</svg>
