<svg width="18" height="18" viewBox="0 0 18 18" fill="none" xmlns="http://www.w3.org/2000/svg">
<path d="M8.46692 0.440797L7.69833 1.20939C7.51642 1.3913 7.51642 1.68626 7.69833 1.8682L13.7205 7.8903L0.466137 7.8903C0.208877 7.8903 0.000297905 8.09888 0.000297905 8.35614V9.4431C0.000297905 9.70036 0.208877 9.90894 0.466137 9.90894L13.7205 9.90894L7.69833 15.9311C7.51642 16.113 7.51642 16.4079 7.69833 16.5899L8.46692 17.3584C8.64883 17.5404 8.94379 17.5404 9.12574 17.3584L17.2552 9.22901C17.4371 9.0471 17.4371 8.75214 17.2552 8.57019L9.12574 0.440758C8.94382 0.258848 8.64887 0.258848 8.46692 0.440797Z" fill="white"/>
</svg>
