<svg width="16" height="16" viewBox="0 0 16 16" fill="none" xmlns="http://www.w3.org/2000/svg">
<path d="M10.1379 3.22411L11.9998 4.00036L12.7761 5.86223C12.7968 5.90384 12.8287 5.93883 12.8683 5.9633C12.9078 5.98776 12.9533 6.00072 12.9998 6.00072C13.0463 6.00072 13.0919 5.98776 13.1314 5.9633C13.1709 5.93883 13.2028 5.90384 13.2236 5.86223L13.9998 4.00036L15.8617 3.22411C15.9033 3.20337 15.9383 3.17145 15.9628 3.13193C15.9872 3.0924 16.0002 3.04684 16.0002 3.00036C16.0002 2.95388 15.9872 2.90831 15.9628 2.86879C15.9383 2.82926 15.9033 2.79734 15.8617 2.77661L13.9998 2.00036L13.2236 0.138483C13.2028 0.0968817 13.1709 0.0618842 13.1314 0.0374216C13.0919 0.012959 13.0463 0 12.9998 0C12.9533 0 12.9078 0.012959 12.8683 0.0374216C12.8287 0.0618842 12.7968 0.0968817 12.7761 0.138483L11.9998 2.00036L10.1379 2.77661C10.0963 2.79734 10.0614 2.82926 10.0369 2.86879C10.0124 2.90831 9.99947 2.95388 9.99947 3.00036C9.99947 3.04684 10.0124 3.0924 10.0369 3.13193C10.0614 3.17145 10.0963 3.20337 10.1379 3.22411V3.22411ZM15.8617 12.7766L13.9998 12.0004L13.2236 10.1385C13.2028 10.0969 13.1709 10.0619 13.1314 10.0374C13.0919 10.013 13.0463 10 12.9998 10C12.9533 10 12.9078 10.013 12.8683 10.0374C12.8287 10.0619 12.7968 10.0969 12.7761 10.1385L11.9998 12.0004L10.1379 12.7766C10.0963 12.7973 10.0614 12.8293 10.0369 12.8688C10.0124 12.9083 9.99947 12.9539 9.99947 13.0004C9.99947 13.0468 10.0124 13.0924 10.0369 13.1319C10.0614 13.1715 10.0963 13.2034 10.1379 13.2241L11.9998 14.0004L12.7761 15.8622C12.7968 15.9038 12.8287 15.9388 12.8683 15.9633C12.9078 15.9878 12.9533 16.0007 12.9998 16.0007C13.0463 16.0007 13.0919 15.9878 13.1314 15.9633C13.1709 15.9388 13.2028 15.9038 13.2236 15.8622L13.9998 14.0004L15.8617 13.2241C15.9033 13.2034 15.9383 13.1715 15.9628 13.1319C15.9872 13.0924 16.0002 13.0468 16.0002 13.0004C16.0002 12.9539 15.9872 12.9083 15.9628 12.8688C15.9383 12.8293 15.9033 12.7973 15.8617 12.7766V12.7766ZM11.9998 8.00036C11.9998 7.86101 11.961 7.72442 11.8877 7.60592C11.8144 7.48741 11.7095 7.39166 11.5848 7.32942L8.30826 5.6913L6.67076 2.41505C6.4167 1.90723 5.58295 1.90723 5.32889 2.41505L3.69107 5.6913L0.414824 7.32942C0.290183 7.39169 0.185351 7.48744 0.112081 7.60595C0.0388108 7.72446 0 7.86103 0 8.00036C0 8.13969 0.0388108 8.27626 0.112081 8.39477C0.185351 8.51328 0.290183 8.60903 0.414824 8.6713L3.69107 10.3094L5.32889 13.586C5.39115 13.7106 5.48691 13.8155 5.60541 13.8887C5.72392 13.962 5.8605 14.0008 5.99982 14.0008C6.13915 14.0008 6.27573 13.962 6.39423 13.8887C6.51274 13.8155 6.6085 13.7106 6.67076 13.586L8.30826 10.3094L11.5848 8.6713C11.7095 8.60905 11.8144 8.51331 11.8877 8.3948C11.961 8.27629 11.9998 8.13971 11.9998 8.00036V8.00036ZM7.41482 9.07942C7.26945 9.15196 7.15156 9.26974 7.07889 9.41505L5.99982 11.5732L4.92076 9.41505C4.84809 9.26974 4.7302 9.15196 4.58482 9.07942L2.4267 8.00036L4.58482 6.9213C4.73015 6.84884 4.84804 6.73118 4.92076 6.58598L5.99982 4.42755L7.07889 6.58598C7.15161 6.73118 7.2695 6.84884 7.41482 6.9213L9.57295 8.00036L7.41482 9.07942Z" fill="white"/>
</svg>
