<svg width="14" height="16" viewBox="0 0 14 16" fill="none" xmlns="http://www.w3.org/2000/svg">
<path d="M10.0484 1.6C9.40248 2.20312 8.81925 2.83719 8.30248 3.47406C7.4559 2.30062 6.40621 1.11031 5.21739 0C2.16584 2.84906 0 6.56125 0 8.8C0 12.7766 3.1146 16 6.95652 16C10.7984 16 13.913 12.7766 13.913 8.8C13.913 7.13531 12.2988 3.70188 10.0484 1.6ZM6.95652 14.5C3.94255 14.5 1.49068 11.9428 1.49068 8.8C1.49068 7.38219 2.86646 4.63719 5.22236 2.10969C5.91615 2.83969 6.55217 3.60094 7.09627 4.35531L8.23354 5.93156L9.45745 4.4225C9.63851 4.19906 9.82547 3.98031 10.0168 3.76719C11.4562 5.56125 12.4224 7.82563 12.4224 8.8C12.4224 11.9428 9.9705 14.5 6.95652 14.5ZM9.73509 7.59875L8.14193 9.4275C8.14193 9.4275 5.64441 6.21812 5.45621 6C4.13882 7.58938 3.47826 8.51937 3.47826 9.57531C3.47826 11.6947 5.0736 13 7.03416 13C7.81863 13 8.5441 12.7541 9.13292 12.3397C10.4708 11.3978 10.7845 9.57156 10.0416 8.14469C9.95 7.96906 9.84783 7.78594 9.73509 7.59875Z" fill="white"/>
</svg>
