<svg width="90" height="140" viewBox="0 0 90 140" fill="none" xmlns="http://www.w3.org/2000/svg">
<rect width="90" height="140" rx="2" fill="#45434E"/>
<line x1="16.5" y1="24.5" x2="73.5" y2="24.5" stroke="#88839A" stroke-width="3" stroke-linecap="round"/>
<line x1="16.5" y1="12.5" x2="73.5" y2="12.5" stroke="#88839A" stroke-width="3" stroke-linecap="round"/>
<rect x="16.5" y="37.5" width="57" height="86" stroke="#88839A" stroke-width="3" stroke-linejoin="round"/>
<path d="M36.2741 75.2914H32L35.2974 77.9599L33.5745 82.6623L37.9033 79.7552V70.8518L36.2741 75.2914Z" fill="#88839A" fill-opacity="0.5"/>
<path d="M53.647 71.5962V64.4274C53.6388 63.2576 53.1856 62.1383 52.3856 61.3119C51.5856 60.4854 50.5032 60.0185 49.3729 60.0121L37.9023 60V70.8522L39.5276 75.2999H43.8017L40.5043 77.9684L42.2273 82.6708L37.9023 79.7556V91H49.2792C50.4373 90.9968 51.5471 90.519 52.3657 89.671C53.1842 88.8231 53.645 87.6741 53.647 86.4755V79.3998C53.6474 78.5265 53.3769 77.6762 52.8755 76.9738C52.3741 76.2715 51.6681 75.7542 50.8614 75.498C51.6681 75.2418 52.3741 74.7245 52.8755 74.0221C53.3769 73.3198 53.6474 72.4695 53.647 71.5962V71.5962ZM48.7166 83.4956C48.7166 83.7744 48.6635 84.0504 48.5604 84.308C48.4574 84.5655 48.3063 84.7995 48.1158 84.9966C47.9253 85.1937 47.6992 85.3501 47.4504 85.4568C47.2015 85.5635 46.9348 85.6184 46.6655 85.6184H43.4071V78.0493H46.6655C46.9348 78.0493 47.2015 78.1042 47.4504 78.2109C47.6992 78.3176 47.9253 78.4739 48.1158 78.671C48.3063 78.8682 48.4574 79.1022 48.5604 79.3597C48.6635 79.6172 48.7166 79.8933 48.7166 80.172V83.4956ZM48.7166 70.5571C48.7166 70.8358 48.6635 71.1119 48.5604 71.3694C48.4574 71.6269 48.3063 71.8609 48.1158 72.0581C47.9253 72.2552 47.6992 72.4115 47.4504 72.5182C47.2015 72.6249 46.9348 72.6798 46.6655 72.6798H43.4071V65.4019H46.6655C46.9348 65.4019 47.2015 65.4568 47.4504 65.5634C47.6992 65.6701 47.9253 65.8265 48.1158 66.0236C48.3063 66.2207 48.4574 66.4547 48.5604 66.7123C48.6635 66.9698 48.7166 67.2458 48.7166 67.5246V70.5571Z" fill="#88839A" fill-opacity="0.5"/>
<line x1="25" y1="47" x2="65" y2="47" stroke="#88839A" stroke-width="2" stroke-linecap="round"/>
<line x1="25" y1="115" x2="65" y2="115" stroke="#88839A" stroke-width="2" stroke-linecap="round"/>
<path d="M33.587 101.312V107H32.4816L30.6964 103.441V107H29.6105V101.312H30.7003L32.5011 104.91V101.312H33.587ZM34.6492 105.031V104.746C34.6492 104.415 34.6883 104.122 34.7664 103.867C34.8471 103.612 34.9617 103.398 35.1102 103.227C35.2586 103.052 35.437 102.921 35.6453 102.832C35.8562 102.741 36.0919 102.695 36.3523 102.695C36.6154 102.695 36.851 102.741 37.0594 102.832C37.2703 102.921 37.45 103.052 37.5984 103.227C37.7495 103.398 37.8654 103.612 37.9461 103.867C38.0268 104.122 38.0672 104.415 38.0672 104.746V105.031C38.0672 105.359 38.0268 105.651 37.9461 105.906C37.8654 106.161 37.7495 106.376 37.5984 106.551C37.45 106.725 37.2716 106.857 37.0633 106.945C36.8549 107.034 36.6206 107.078 36.3602 107.078C36.0997 107.078 35.8641 107.034 35.6531 106.945C35.4448 106.857 35.2651 106.725 35.1141 106.551C34.963 106.376 34.8471 106.161 34.7664 105.906C34.6883 105.651 34.6492 105.359 34.6492 105.031ZM35.743 104.746V105.031C35.743 105.227 35.756 105.396 35.782 105.539C35.8107 105.682 35.851 105.801 35.9031 105.895C35.9578 105.988 36.0229 106.057 36.0984 106.102C36.174 106.146 36.2612 106.168 36.3602 106.168C36.4591 106.168 36.5477 106.146 36.6258 106.102C36.7039 106.057 36.7677 105.988 36.8172 105.895C36.8693 105.801 36.907 105.682 36.9305 105.539C36.9565 105.396 36.9695 105.227 36.9695 105.031V104.746C36.9695 104.556 36.9552 104.389 36.9266 104.246C36.8979 104.1 36.8576 103.982 36.8055 103.891C36.7534 103.797 36.6883 103.727 36.6102 103.68C36.5346 103.63 36.4487 103.605 36.3523 103.605C36.256 103.605 36.1701 103.63 36.0945 103.68C36.0216 103.727 35.9578 103.797 35.9031 103.891C35.851 103.982 35.8107 104.1 35.782 104.246C35.756 104.389 35.743 104.556 35.743 104.746ZM42.4845 101.312V107H41.3478V101.312H42.4845ZM44.828 103.648V107H43.7303V102.773H44.7616L44.828 103.648ZM44.6717 104.742L44.3709 104.75C44.3657 104.453 44.3918 104.18 44.4491 103.93C44.5064 103.68 44.5923 103.462 44.7069 103.277C44.8241 103.092 44.9712 102.949 45.1483 102.848C45.3254 102.746 45.5324 102.695 45.7694 102.695C45.923 102.695 46.0649 102.724 46.1952 102.781C46.3254 102.836 46.4386 102.923 46.535 103.043C46.6314 103.16 46.7056 103.314 46.7577 103.504C46.8097 103.691 46.8358 103.917 46.8358 104.18V107H45.742V104.312C45.742 104.125 45.7238 103.982 45.6873 103.883C45.6509 103.781 45.5988 103.711 45.5311 103.672C45.4634 103.63 45.3801 103.609 45.2811 103.609C45.1769 103.609 45.0858 103.638 45.0077 103.695C44.9295 103.753 44.8657 103.833 44.8162 103.938C44.7694 104.039 44.7329 104.159 44.7069 104.297C44.6834 104.435 44.6717 104.583 44.6717 104.742ZM46.7303 104.633L46.3358 104.684C46.3306 104.405 46.3553 104.146 46.41 103.906C46.4647 103.664 46.5493 103.453 46.6639 103.273C46.7785 103.091 46.9217 102.949 47.0936 102.848C47.2681 102.746 47.4699 102.695 47.6991 102.695C47.8709 102.695 48.0272 102.724 48.1678 102.781C48.3084 102.839 48.4282 102.931 48.5272 103.059C48.6287 103.184 48.7056 103.349 48.7577 103.555C48.8123 103.76 48.8397 104.01 48.8397 104.305V107H47.742V104.309C47.742 104.118 47.7238 103.973 47.6873 103.871C47.6509 103.77 47.5988 103.701 47.5311 103.664C47.4634 103.628 47.3827 103.609 47.2889 103.609C47.1952 103.609 47.1131 103.635 47.0428 103.688C46.9751 103.74 46.9178 103.812 46.8709 103.906C46.8241 103.997 46.7889 104.105 46.7655 104.23C46.742 104.353 46.7303 104.487 46.7303 104.633ZM51.8472 106.027V104.074C51.8472 103.947 51.8316 103.845 51.8003 103.77C51.7717 103.694 51.7274 103.639 51.6675 103.605C51.6102 103.569 51.5399 103.551 51.4566 103.551C51.3628 103.551 51.2847 103.57 51.2222 103.609C51.1597 103.648 51.1128 103.704 51.0816 103.777C51.0529 103.85 51.0386 103.938 51.0386 104.039H49.9409C49.9409 103.857 49.9761 103.685 50.0464 103.523C50.1167 103.359 50.2196 103.216 50.355 103.094C50.493 102.969 50.6571 102.871 50.8472 102.801C51.0373 102.73 51.2508 102.695 51.4878 102.695C51.7691 102.695 52.0191 102.743 52.2378 102.84C52.4566 102.934 52.6297 103.083 52.7573 103.289C52.8849 103.495 52.9487 103.762 52.9487 104.09V105.973C52.9487 106.21 52.9605 106.402 52.9839 106.551C53.0099 106.699 53.0477 106.827 53.0972 106.934V107H51.9956C51.9461 106.883 51.9084 106.737 51.8823 106.562C51.8589 106.385 51.8472 106.207 51.8472 106.027ZM51.98 104.418L51.9839 105.074H51.5816C51.4774 105.074 51.3862 105.091 51.3081 105.125C51.2326 105.159 51.1688 105.207 51.1167 105.27C51.0646 105.329 51.0256 105.4 50.9995 105.48C50.9761 105.561 50.9644 105.647 50.9644 105.738C50.9644 105.84 50.9787 105.926 51.0073 105.996C51.036 106.066 51.079 106.12 51.1362 106.156C51.1935 106.193 51.2612 106.211 51.3394 106.211C51.4592 106.211 51.5633 106.186 51.6519 106.137C51.7404 106.087 51.8055 106.027 51.8472 105.957C51.8915 105.887 51.9058 105.822 51.8902 105.762L52.1402 106.188C52.1089 106.284 52.0659 106.384 52.0112 106.488C51.9592 106.592 51.8928 106.689 51.812 106.777C51.7313 106.866 51.631 106.939 51.5112 106.996C51.3941 107.051 51.2547 107.078 51.0933 107.078C50.8667 107.078 50.6597 107.026 50.4722 106.922C50.2847 106.818 50.1362 106.672 50.0269 106.484C49.9201 106.297 49.8667 106.074 49.8667 105.816C49.8667 105.603 49.9006 105.41 49.9683 105.238C50.0386 105.064 50.1428 104.917 50.2808 104.797C50.4188 104.674 50.5933 104.581 50.8042 104.516C51.0152 104.451 51.2626 104.418 51.5464 104.418H51.98ZM56.3 102.773H57.2922V107C57.2922 107.385 57.218 107.701 57.0695 107.945C56.9237 108.193 56.7193 108.374 56.4562 108.488C56.1958 108.605 55.8911 108.664 55.5422 108.664C55.4094 108.664 55.2596 108.646 55.093 108.609C54.9289 108.573 54.7701 108.517 54.6164 108.441C54.4628 108.368 54.3365 108.28 54.2375 108.176L54.6086 107.418C54.7102 107.52 54.843 107.605 55.007 107.676C55.1711 107.749 55.3326 107.785 55.4914 107.785C55.6451 107.785 55.7727 107.76 55.8742 107.711C55.9784 107.664 56.0565 107.583 56.1086 107.469C56.1633 107.354 56.1906 107.201 56.1906 107.008V103.754L56.3 102.773ZM53.9406 105.035V104.754C53.9406 104.41 53.9732 104.109 54.0383 103.852C54.1034 103.594 54.1971 103.379 54.3195 103.207C54.4419 103.035 54.5917 102.908 54.7687 102.824C54.9484 102.738 55.149 102.695 55.3703 102.695C55.6021 102.695 55.7961 102.746 55.9523 102.848C56.1086 102.947 56.2349 103.086 56.3312 103.266C56.4302 103.445 56.5057 103.658 56.5578 103.902C56.6125 104.147 56.6542 104.415 56.6828 104.707V105.113C56.6542 105.389 56.6073 105.647 56.5422 105.887C56.4797 106.126 56.3964 106.335 56.2922 106.512C56.188 106.689 56.0604 106.828 55.9094 106.93C55.7583 107.029 55.576 107.078 55.3625 107.078C55.1437 107.078 54.9458 107.034 54.7687 106.945C54.5943 106.857 54.4445 106.727 54.3195 106.555C54.1971 106.38 54.1034 106.167 54.0383 105.914C53.9732 105.659 53.9406 105.366 53.9406 105.035ZM55.0383 104.754V105.035C55.0383 105.233 55.05 105.404 55.0734 105.547C55.0995 105.688 55.1385 105.803 55.1906 105.895C55.2427 105.983 55.3091 106.049 55.3898 106.094C55.4732 106.135 55.5708 106.156 55.6828 106.156C55.8417 106.156 55.968 106.12 56.0617 106.047C56.1581 105.971 56.2284 105.868 56.2727 105.738C56.3195 105.605 56.3456 105.453 56.3508 105.281V104.543C56.3482 104.4 56.3312 104.271 56.3 104.156C56.2714 104.042 56.231 103.944 56.1789 103.863C56.1268 103.783 56.0591 103.72 55.9758 103.676C55.8951 103.632 55.8 103.609 55.6906 103.609C55.5786 103.609 55.4823 103.632 55.4016 103.676C55.3208 103.72 55.2531 103.789 55.1984 103.883C55.1464 103.974 55.106 104.092 55.0773 104.238C55.0513 104.382 55.0383 104.553 55.0383 104.754ZM60.1317 107.078C59.8427 107.078 59.5861 107.034 59.3622 106.945C59.1408 106.857 58.9533 106.729 58.7997 106.562C58.646 106.393 58.5289 106.189 58.4481 105.949C58.3674 105.71 58.327 105.436 58.327 105.129V104.781C58.327 104.438 58.3661 104.137 58.4442 103.879C58.5223 103.618 58.633 103.4 58.7762 103.223C58.9195 103.046 59.0953 102.914 59.3036 102.828C59.5145 102.74 59.7528 102.695 60.0184 102.695C60.2841 102.695 60.5171 102.74 60.7177 102.828C60.9208 102.914 61.0887 103.044 61.2216 103.219C61.3544 103.391 61.4546 103.604 61.5223 103.859C61.5901 104.115 61.6239 104.411 61.6239 104.75V105.25H58.7919V104.48H60.5497V104.383C60.5497 104.211 60.5315 104.068 60.495 103.953C60.4585 103.836 60.4012 103.749 60.3231 103.691C60.245 103.634 60.1408 103.605 60.0106 103.605C59.9012 103.605 59.8088 103.628 59.7333 103.672C59.6578 103.716 59.5979 103.785 59.5536 103.879C59.5093 103.973 59.4768 104.095 59.4559 104.246C59.4351 104.395 59.4247 104.573 59.4247 104.781V105.129C59.4247 105.324 59.4416 105.488 59.4755 105.621C59.5093 105.751 59.5588 105.858 59.6239 105.941C59.6916 106.022 59.7736 106.081 59.87 106.117C59.9664 106.151 60.0783 106.168 60.2059 106.168C60.3986 106.168 60.5718 106.134 60.7255 106.066C60.8817 105.996 61.0145 105.901 61.1239 105.781L61.5614 106.445C61.4859 106.544 61.3817 106.643 61.2489 106.742C61.1161 106.841 60.9572 106.922 60.7723 106.984C60.5874 107.047 60.3739 107.078 60.1317 107.078Z" fill="#88839A" fill-opacity="0.5"/>
</svg>
