<svg width="90" height="140" viewBox="0 0 90 140" fill="none" xmlns="http://www.w3.org/2000/svg">
<rect width="90" height="140" rx="2" fill="#45434E"/>
<line x1="16" y1="127" x2="74" y2="127" stroke="#88839A" stroke-width="2" stroke-linecap="round"/>
<line x1="16" y1="13" x2="74" y2="13" stroke="#88839A" stroke-width="2" stroke-linecap="round"/>
<path d="M62.875 54.5H27.125C24.8468 54.5 23 56.3468 23 58.625V83.375C23 85.6532 24.8468 87.5 27.125 87.5H62.875C65.1532 87.5 67 85.6532 67 83.375V58.625C67 56.3468 65.1532 54.5 62.875 54.5ZM64.25 83.375C64.25 84.1331 63.6331 84.75 62.875 84.75H27.125C26.3669 84.75 25.75 84.1331 25.75 83.375V58.625C25.75 57.8669 26.3669 57.25 27.125 57.25H62.875C63.6331 57.25 64.25 57.8669 64.25 58.625V83.375ZM32.625 68.9375C35.2829 68.9375 37.4375 66.7829 37.4375 64.125C37.4375 61.4671 35.2829 59.3125 32.625 59.3125C29.9671 59.3125 27.8125 61.4671 27.8125 64.125C27.8125 66.7829 29.9671 68.9375 32.625 68.9375ZM32.625 62.0625C33.7623 62.0625 34.6875 62.9877 34.6875 64.125C34.6875 65.2623 33.7623 66.1875 32.625 66.1875C31.4877 66.1875 30.5625 65.2623 30.5625 64.125C30.5625 62.9877 31.4877 62.0625 32.625 62.0625ZM50.4166 64.0416L42.25 72.2082L39.5834 69.5416C38.778 68.7361 37.472 68.7361 36.6666 69.5416L29.1041 77.1041C28.9126 77.2956 28.7607 77.523 28.657 77.7732C28.5534 78.0235 28.5 78.2917 28.5 78.5625V80.9688C28.5 81.5383 28.9617 82 29.5312 82H60.4688C61.0383 82 61.5 81.5383 61.5 80.9688V73.0625C61.5 72.5155 61.2827 71.9909 60.8959 71.6041L53.3334 64.0416C52.528 63.2361 51.222 63.2361 50.4166 64.0416ZM58.75 79.25H31.25V78.8473L38.125 71.9723L42.25 76.0973L51.875 66.4723L58.75 73.3473V79.25Z" fill="#88839A"/>
</svg>
